<mxfile host="app.diagrams.net" modified="2023-05-09T18:11:32.506Z" agent="Mozilla/5.0 (Macintosh; Intel Mac OS X 10_15_7) AppleWebKit/537.36 (KHTML, like Gecko) Chrome/113.0.0.0 Safari/537.36 Edg/113.0.1774.35" etag="KHkHq8fFR4j-SOylVdbS" version="21.2.9" type="device">
  <diagram name="Page-1" id="oXa2BU7zyi_friA6r2q0">
    <mxGraphModel dx="1141" dy="591" grid="1" gridSize="10" guides="1" tooltips="1" connect="1" arrows="1" fold="1" page="1" pageScale="1" pageWidth="827" pageHeight="1169" math="0" shadow="0">
      <root>
        <mxCell id="0" />
        <mxCell id="1" parent="0" />
        <mxCell id="YCVPape62Ff0-Q7dyDGJ-1" value="" style="shape=curlyBracket;whiteSpace=wrap;html=1;rounded=1;labelPosition=left;verticalLabelPosition=middle;align=right;verticalAlign=middle;" parent="1" vertex="1">
          <mxGeometry x="300" y="80" width="20" height="120" as="geometry" />
        </mxCell>
        <mxCell id="YCVPape62Ff0-Q7dyDGJ-2" value="Map" style="whiteSpace=wrap;html=1;align=right;rounded=1;" parent="1" vertex="1">
          <mxGeometry x="250" y="125" width="50" height="30" as="geometry" />
        </mxCell>
        <mxCell id="YCVPape62Ff0-Q7dyDGJ-4" value="&quot;A-I&quot;: Correspinding Artworks" style="whiteSpace=wrap;html=1;align=right;rounded=1;" parent="1" vertex="1">
          <mxGeometry x="320" y="90" width="180" height="20" as="geometry" />
        </mxCell>
        <mxCell id="YCVPape62Ff0-Q7dyDGJ-6" value="&quot;J-R&quot;: Correspinding Artworks" style="whiteSpace=wrap;html=1;align=right;rounded=1;" parent="1" vertex="1">
          <mxGeometry x="320" y="130" width="180" height="20" as="geometry" />
        </mxCell>
        <mxCell id="YCVPape62Ff0-Q7dyDGJ-7" value="Others: Correspinding Artworks" style="whiteSpace=wrap;html=1;align=right;rounded=1;" parent="1" vertex="1">
          <mxGeometry x="320" y="170" width="180" height="20" as="geometry" />
        </mxCell>
        <mxCell id="YCVPape62Ff0-Q7dyDGJ-10" style="edgeStyle=orthogonalEdgeStyle;rounded=0;orthogonalLoop=1;jettySize=auto;html=1;exitX=1;exitY=0.5;exitDx=0;exitDy=0;entryX=0;entryY=0.5;entryDx=0;entryDy=0;" parent="1" target="YCVPape62Ff0-Q7dyDGJ-2" edge="1">
          <mxGeometry relative="1" as="geometry">
            <mxPoint x="180" y="140" as="sourcePoint" />
          </mxGeometry>
        </mxCell>
        <mxCell id="-wsZTfIgCTcUT_M9VoZF-6" value="" style="edgeStyle=orthogonalEdgeStyle;rounded=0;orthogonalLoop=1;jettySize=auto;html=1;" edge="1" parent="1" source="-wsZTfIgCTcUT_M9VoZF-3">
          <mxGeometry relative="1" as="geometry">
            <mxPoint x="473.2449999999999" y="408" as="targetPoint" />
          </mxGeometry>
        </mxCell>
        <mxCell id="-wsZTfIgCTcUT_M9VoZF-3" value="" style="shape=image;imageAspect=0;aspect=fixed;verticalLabelPosition=bottom;verticalAlign=top;image=data:image/jpeg,/9j/4AAQSkZJRgABAgEASABIAAD/4Q4mRXhpZgAATU0AKgAAAAgABwESAAMAAAABAAEAAAEaAAUAAAABAAAAYgEbAAUAAAABAAAAagEoAAMAAAABAAIAAAExAAIAAAAUAAAAcgEyAAIAAAAUAAAAhodpAAQAAAABAAAAnAAAAMgAAABIAAAAAQAAAEgAAAABQWRvYmUgUGhvdG9zaG9wIDcuMAAyMDA2OjA3OjE5IDEzOjMwOjM5AAAAAAOgAQADAAAAAf//AACgAgAEAAAAAQAAAh+gAwAEAAAAAQAAAVQAAAAAAAAABgEDAAMAAAABAAYAAAEaAAUAAAABAAABFgEbAAUAAAABAAABHgEoAAMAAAABAAIAAAIBAAQAAAABAAABJgICAAQAAAABAAAM+AAAAAAAAABIAAAAAQAAAEgAAAAB/9j/4AAQSkZJRgABAgEASABIAAD/7QAMQWRvYmVfQ00AAv/uAA5BZG9iZQBkgAAAAAH/2wCEAAwICAgJCAwJCQwRCwoLERUPDAwPFRgTExUTExgRDAwMDAwMEQwMDAwMDAwMDAwMDAwMDAwMDAwMDAwMDAwMDAwBDQsLDQ4NEA4OEBQODg4UFA4ODg4UEQwMDAwMEREMDAwMDAwRDAwMDAwMDAwMDAwMDAwMDAwMDAwMDAwMDAwMDP/AABEIAFAAgAMBIgACEQEDEQH/3QAEAAj/xAE/AAABBQEBAQEBAQAAAAAAAAADAAECBAUGBwgJCgsBAAEFAQEBAQEBAAAAAAAAAAEAAgMEBQYHCAkKCxAAAQQBAwIEAgUHBggFAwwzAQACEQMEIRIxBUFRYRMicYEyBhSRobFCIyQVUsFiMzRygtFDByWSU/Dh8WNzNRaisoMmRJNUZEXCo3Q2F9JV4mXys4TD03Xj80YnlKSFtJXE1OT0pbXF1eX1VmZ2hpamtsbW5vY3R1dnd4eXp7fH1+f3EQACAgECBAQDBAUGBwcGBTUBAAIRAyExEgRBUWFxIhMFMoGRFKGxQiPBUtHwMyRi4XKCkkNTFWNzNPElBhaisoMHJjXC0kSTVKMXZEVVNnRl4vKzhMPTdePzRpSkhbSVxNTk9KW1xdXl9VZmdoaWprbG1ub2JzdHV2d3h5ent8f/2gAMAwEAAhEDEQA/APVUkkklKSSVLq/Um9Nw/tBDHOL2VsZY/YHOeduxhDLXvs/crZX70lN1Azs7E6fiW5mZYKcekbrHmTHYBrWy573u9ldbP0lln6OtNj5tF2DVnFwqpurZbueQAGvAe3c+dn5yxOrZzuu4b8DotVuQ5z2Pr6kIrxarabG30XtyL2u+3Nqvoa/ZhUZlVn8zc+pJTpdL67idTssoZXdi5VTW2WYuVU6m0MeXNruDH+2yp7q3++pz/wDR2fpForkOiZXX7rm9b6pgfbcr07MRjenvYyugMt25dL6Oo3473ZLsrF/WLfVtZ+gprx/8LZbsD6z9LYB9rbkYJOhOVjXVMB88l1X2T/NvSU66S47M+tub9tyacHJxbaqrLmU7WG0ubXiUdQpfuqu9+/Kffhe1v6T/AAf6etdikpSSSSSlJJJJKUkkkkp//9D1VJJJJTmdW+s3QejW1U9UzqsW27Wut5JcRqN7msDtlft/nH/o0F2f1rqHt6ZhjExz/wBreoNcCRP0qelsNeS/6P8A2tu6c/8A4O1cZ9ef8X+R9Y/rYLem5LK7bMdlmc27dtraHfZ8d9Tqw/c7IZVdso/Rf0S39N+lXonTsKrp/T8bApLnVYlNdFbnauLa2tqYXxt921qSmljfV3CZazJzX2dTy6zurvzCH7Dp7sbGY2rCxHe36eLjVWf6R71qpJJKeSz+l5buvZeJivDWZVFuZRU5z6m+vaynBtyqnVB+6zptmNjZH7/qdYsyK/09TF1g4XO9Xb9s+sdONbnO6W3CxftWPfUKxba6x1lGUz1suu+n7NiVU0vyMf0ve/JxrrP5ipaP1c6hkdT6Ji5uS0C25rpc0FrbGtc6urKrZYA9lWZUxmVUz/R3JKbmTiYuXWasqmvIrPLLWh7f814c1Z//ADX6QyfsjbsGeBh33Y7AfH7Nj2sxXbf5dK1kklOT+zOt0kHF6w+yPzM2iq5v/smOmXf59yxcTrPWv2bg/WLIz6rqs+7Hpd0mqtmxn2iyrF9Gi/d9q/aGI5735Pq2WV76sij7PR/OV63WMrrTOp4mNhD0sa1hc7I9J17fVbbR+r3tqb+gqsxXZGy51lDPV/w7PS9O7Ayel4mU9/1zFPo+rdDb8ea7mYEegzqdbq2bnZO//Kb32ss9XpD34F9d382kp7lJYwzOs9LhvUaT1HEbp9uxGH1mj2t3ZfTm7nWfy7un+r/6b8etA+qOJhtxrczEcLMe17hgkyHsxnudmMx7muLnVuryMq/02f8AcT7J6n6VJT0CSSSSn//R9VWT9Yen35renuprNv2TOpyHsbYa3bG763uY7dW1/p+r6npvf72LWWR9YvrN0j6v4vq9RymY9locMdhDnOe4Cf5upr7Nm76dm300lK6F+sZHU+pkaZOU6mkzJ9LE/Udv9T7ZVm5DP/DC11S6Lj4+L0jCxsaxt9FWPUyu9pDm2NDG7bmvb7X+t/Ob1dSUpZ3WOr/sttDvR9b7Q6xjQHBsOrpvztdw/OqxLW/8Z6a0Vi9b6hjWFnTsJ1GR1e55qoYSyx2PuaftGbbU47mVY2Pvf/w9npYn/alJTV6nhu+st2TSB+odND2Y8hsW9Q2lgvY/X9H0qfR/0b86y/1f+T1a6d9a8DqN1FVFVw+0vNbHuDQ0OGPR1L3fpPU/mMprP5v+frtrt9NauLi4+HjVYmMwV0Y7G11VjhrGDYxuv8lYHT6ej9O+sGbiZLMavKfaM/AusFYtcMvfVktqe+LX3Ny2ZO/Z/wBp8rFoSU9Ikkkkp5Pqv1w6F1HK/wCbPT89n2/MuGJc8bmtrrO45fp5D2eg/IdSx+NjbHWfrl9H/CLQ+sOF1W8j9ntc+t+HlYzqmXGkC6z7PZhXvhzPZV9nvp3s/Ss+0f6F9y5Tpv8Aiex8H6x09SGeXYGNc3Ipxgz9JLHepTTZc5zm+mxza99mz9N/wP8AOL0dJTzfTPrD0/ptj+g9RyduRhWjGqucHuY6pwbZgfaMvZ6FWV6D2Y9rMi2u27Jq9T/D0rTzuh4eXf8Aa6y/DzwA1ubjEMtgEEMtlr6cqrT+YzKsin/g1i9VwuqYWJk9JrOOemdYybKvtby71qP2hZY/IY7FbX6OT+mvsqxLvtNOz16PWpu9L9N1aSnDv67ldEpdb9Yq2Nw64B6pigmr3Haz7ThuNuViuc411s9J2dT+/fR/Nq/0nrPTOtYYzul5DcrHJLd7ZBDh9Jllbw2yp+u7ZYxZv11+qzfrT0Q9O9b7PdXY2/HsIlosaHs22t+l6b67bGfyP5z/AINVvqD9TP8Amn0++u68ZGXlva+57AQxoYNtdde76W3fZ+k9iSn/0vVCQBJ0A5K88/xhfVHH+tOb0zO6bm1/abn/ALPid9ZawX5j3b6p9OzHZXlb2f4X2V/ov8J3+Tj15WNbjWyar2OreAYO142O1/qlYnT8MN+sTmGz1x03Gl9pZWwvvzXNL3Pbj101etTjdOq/M3+nm/uJKdDoHR6eh9GxOlUvNjMVm31DoXOJL7LNsu277HPds/MWgkkkpS8b+rX+Ln6w4X13rF9ra6umPqzLMtr5NtTn2ekxlYd6u7L+z31Xep/Ns9X+c/Rev6r1v9ofs5/7ODnXh9RcxhaHuq9Wv7Yyl1jqmNufiet6X6Sv3/4StUvq8y/7d1KzJe62+r7Li22PDWuc+vGqybHvZSXUs3Pzt2yn9F+4kp3Fx/V239Ns64cvpf2/H6u6oU5odTsaH11YFWH1D1nVXUY+NlN9f1q68qplWVZf/O+suwQM3Gbl4d+K6C2+t9ZkSIe0s1HzSUyxarKcammyw3WVsax9ztC9zQGusdz9P6SKsL6mvtt6Oci2uyp+TkX3ltlnqgerbZd6dfvsdV6HqfZ7qntpf9pqu9n+EfupKUkkkkpzPrJTZb0TKNX87jhuVV/Xxnszav8AwShqp4fWLc76wVV1nZiel1Cp1e/cXWYeRh4fqWV7f0Lt1mR6X6R/qY9tdln+jZa+s/WendF6LkZnUnOFBb6WxkF73WDY2upri1rnrP8AqP8AWjpv1m6d9ooYWZ+M2tma17Rv3lkeq17Z31W+nY2t/wBP9H/NpKelSSSSU//T7361fWTF+rPR7Op5LDaQRXTS0wbLHTsr3w702+1z3v8A3P3/AObWP/i6+s+L9YsfqWQ2t1Oacn18usnc0CxvoYfpWbWbmtxcOul3/CU+p/hF03U+mYPVsG3A6hUL8W4APrMjg7mkObtc1zXD6TVW6B9XOkfV7EOJ0un0mPdvsc4lz3ujbuse/wD6n+bSU6aSSSSkd99OPTZkXvFdNLS+yxxgNa0bnvcf3WtXIfUn659D611HqeNjWPbl5GQ/KrZc3b6lTWU4rfSIc/3V1UV7q3fpP/BF12VjUZmLdiZDd9GRW6q1nEseCx7dP3muXJ/VP/Fp0r6tdTf1JmRZl3gOZj+o1rRW12jj7f5y7Z+j9T9H7P8ABJKexSSSSU+dfV//ABl9D/5xZPRqmW/Yc3NccHKP0fUu2eox1P02UZOd9oyK7v8Au1+mpp969FXK4n+LT6rYnXR1umqxtrX+rVi7h9nrsncLaqtm9ux/vrZ6vpV/4Ov+bXVJKUkkkkpz+u9D6f17plvTOoMLqLYIc0w9jh9C2l8O2WM/8ws/Rqp9Vvqj0n6r4lmP04Pe69wdffaQbHlv0GuLG1t2V7nemzattJJSkkkklP8A/9n/7RMUUGhvdG9zaG9wIDMuMAA4QklNBCUAAAAAABAAAAAAAAAAAAAAAAAAAAAAOEJJTQPtAAAAAAAQAEgAAAABAAIASAAAAAEAAjhCSU0EJgAAAAAADgAAAAAAAAAAAAA/gAAAOEJJTQQNAAAAAAAEAAAAeDhCSU0EGQAAAAAABAAAAB44QklNA/MAAAAAAAkAAAAAAAAAAAEAOEJJTQQKAAAAAAABAAA4QklNJxAAAAAAAAoAAQAAAAAAAAACOEJJTQP1AAAAAABIAC9mZgABAGxmZgAGAAAAAAABAC9mZgABAKGZmgAGAAAAAAABADIAAAABAFoAAAAGAAAAAAABADUAAAABAC0AAAAGAAAAAAABOEJJTQP4AAAAAABwAAD/////////////////////////////A+gAAAAA/////////////////////////////wPoAAAAAP////////////////////////////8D6AAAAAD/////////////////////////////A+gAADhCSU0EAAAAAAAAAgATOEJJTQQCAAAAAAA4AAAAAAAAAAAAAAAAAAAAAAAAAAAAAAAAAAAAAAAAAAAAAAAAAAAAAAAAAAAAAAAAAAAAAAAAAAA4QklNBAgAAAAAABAAAAABAAACQAAAAkAAAAAAOEJJTQQeAAAAAAAEAAAAADhCSU0EGgAAAAADSQAAAAYAAAAAAAAAAAAAAVQAAAIfAAAACgBVAG4AdABpAHQAbABlAGQALQAxAAAAAQAAAAAAAAAAAAAAAAAAAAAAAAABAAAAAAAAAAAAAAIfAAABVAAAAAAAAAAAAAAAAAAAAAABAAAAAAAAAAAAAAAAAAAAAAAAABAAAAABAAAAAAAAbnVsbAAAAAIAAAAGYm91bmRzT2JqYwAAAAEAAAAAAABSY3QxAAAABAAAAABUb3AgbG9uZwAAAAAAAAAATGVmdGxvbmcAAAAAAAAAAEJ0b21sb25nAAABVAAAAABSZ2h0bG9uZwAAAh8AAAAGc2xpY2VzVmxMcwAAAAFPYmpjAAAAAQAAAAAABXNsaWNlAAAAEgAAAAdzbGljZUlEbG9uZwAAAAAAAAAHZ3JvdXBJRGxvbmcAAAAAAAAABm9yaWdpbmVudW0AAAAMRVNsaWNlT3JpZ2luAAAADWF1dG9HZW5lcmF0ZWQAAAAAVHlwZWVudW0AAAAKRVNsaWNlVHlwZQAAAABJbWcgAAAABmJvdW5kc09iamMAAAABAAAAAAAAUmN0MQAAAAQAAAAAVG9wIGxvbmcAAAAAAAAAAExlZnRsb25nAAAAAAAAAABCdG9tbG9uZwAAAVQAAAAAUmdodGxvbmcAAAIfAAAAA3VybFRFWFQAAAABAAAAAAAAbnVsbFRFWFQAAAABAAAAAAAATXNnZVRFWFQAAAABAAAAAAAGYWx0VGFnVEVYVAAAAAEAAAAAAA5jZWxsVGV4dElzSFRNTGJvb2wBAAAACGNlbGxUZXh0VEVYVAAAAAEAAAAAAAlob3J6QWxpZ25lbnVtAAAAD0VTbGljZUhvcnpBbGlnbgAAAAdkZWZhdWx0AAAACXZlcnRBbGlnbmVudW0AAAAPRVNsaWNlVmVydEFsaWduAAAAB2RlZmF1bHQAAAALYmdDb2xvclR5cGVlbnVtAAAAEUVTbGljZUJHQ29sb3JUeXBlAAAAAE5vbmUAAAAJdG9wT3V0c2V0bG9uZwAAAAAAAAAKbGVmdE91dHNldGxvbmcAAAAAAAAADGJvdHRvbU91dHNldGxvbmcAAAAAAAAAC3JpZ2h0T3V0c2V0bG9uZwAAAAAAOEJJTQQRAAAAAAABAQA4QklNBBQAAAAAAAQAAAA7OEJJTQQMAAAAAA0UAAAAAQAAAIAAAABQAAABgAAAeAAAAAz4ABgAAf/Y/+AAEEpGSUYAAQIBAEgASAAA/+0ADEFkb2JlX0NNAAL/7gAOQWRvYmUAZIAAAAAB/9sAhAAMCAgICQgMCQkMEQsKCxEVDwwMDxUYExMVExMYEQwMDAwMDBEMDAwMDAwMDAwMDAwMDAwMDAwMDAwMDAwMDAwMAQ0LCw0ODRAODhAUDg4OFBQODg4OFBEMDAwMDBERDAwMDAwMEQwMDAwMDAwMDAwMDAwMDAwMDAwMDAwMDAwMDAz/wAARCABQAIADASIAAhEBAxEB/90ABAAI/8QBPwAAAQUBAQEBAQEAAAAAAAAAAwABAgQFBgcICQoLAQABBQEBAQEBAQAAAAAAAAABAAIDBAUGBwgJCgsQAAEEAQMCBAIFBwYIBQMMMwEAAhEDBCESMQVBUWETInGBMgYUkaGxQiMkFVLBYjM0coLRQwclklPw4fFjczUWorKDJkSTVGRFwqN0NhfSVeJl8rOEw9N14/NGJ5SkhbSVxNTk9KW1xdXl9VZmdoaWprbG1ub2N0dXZ3eHl6e3x9fn9xEAAgIBAgQEAwQFBgcHBgU1AQACEQMhMRIEQVFhcSITBTKBkRShsUIjwVLR8DMkYuFygpJDUxVjczTxJQYWorKDByY1wtJEk1SjF2RFVTZ0ZeLys4TD03Xj80aUpIW0lcTU5PSltcXV5fVWZnaGlqa2xtbm9ic3R1dnd4eXp7fH/9oADAMBAAIRAxEAPwD1VJJJJSkklS6v1JvTcP7QQxzi9lbGWP2BznnbsYQy177P3K2V+9JTdQM7OxOn4luZmWCnHpG6x5kx2Aa1sue97vZXWz9JZZ+jrTY+bRdg1ZxcKqbq2W7nkABrwHt3PnZ+csTq2c7ruG/A6LVbkOc9j6+pCK8Wq2mxt9F7ci9rvtzar6Gv2YVGZVZ/M3PqSU6XS+u4nU7LKGV3YuVU1tlmLlVOptDHlza7gx/tsqe6t/vqc/8A0dn6RaK5DomV1+65vW+qYH23K9OzEY3p72MroDLduXS+jqN+O92S7Kxf1i31bWfoKa8f/C2W7A+s/S2Afa25GCToTlY11TAfPJdV9k/zb0lOukuOzPrbm/bcmnBycW2qqy5lO1htLm14lHUKX7qrvfvyn34Xtb+k/wAH+nrXYpKUkkkkpSSSSSlJJJJKf//Q9VSSSSU5nVvrN0Ho1tVPVM6rFtu1rreSXEaje5rA7ZX7f5x/6NBdn9a6h7emYYxMc/8Aa3qDXAkT9KnpbDXkv+j/ANrbunP/AODtXGfXn/F/kfWP62C3puSyu2zHZZnNu3ba2h32fHfU6sP3OyGVXbKP0X9Et/TfpV6J07Cq6f0/GwKS51WJTXRW52ri2tramF8bfdtakppY31dwmWsyc19nU8us7q78wh+w6e7GxmNqwsR3t+ni41Vn+ke9aqSSSnks/peW7r2XiYrw1mVRbmUVOc+pvr2spwbcqp1Qfus6bZjY2R+/6nWLMiv9PUxdYOFzvV2/bPrHTjW5zultwsX7Vj31CsW2usdZRlM9bLrvp+zYlVNL8jH9L3vyca6z+YqWj9XOoZHU+iYubktAtua6XNBa2xrXOrqyq2WAPZVmVMZlVM/0dySm5k4mLl1mrKpryKzyy1oe3/NeHNWf/wA1+kMn7I27BngYd92OwHx+zY9rMV23+XStZJJTk/szrdJBxesPsj8zNoqub/7Jjpl3+fcsXE6z1r9m4P1iyM+q6rPux6XdJqrZsZ9osqxfRov3fav2hiOe9+T6tlle+rIo+z0fzlet1jK60zqeJjYQ9LGtYXOyPSde31W20fq97am/oKrMV2RsudZQz1f8Oz0vTuwMnpeJlPf9cxT6Pq3Q2/Hmu5mBHoM6nW6tm52Tv/ym99rLPV6Q9+BfXd/NpKe5SWMMzrPS4b1Gk9RxG6fbsRh9Zo9rd2X05u51n8u7p/q/+m/HrQPqjiYbca3MxHCzHte4YJMh7MZ7nZjMe5ri51bq8jKv9Nn/AHE+yep+lSU9Akkkkp//0fVVk/WHp9+a3p7qazb9kzqch7G2Gt2xu+t7mO3Vtf6fq+p6b3+9i1lkfWL6zdI+r+L6vUcpmPZaHDHYQ5znuAn+bqa+zZu+nZt9NJSuhfrGR1PqZGmTlOppMyfSxP1Hb/U+2VZuQz/wwtdUui4+Pi9IwsbGsbfRVj1MrvaQ5tjQxu25r2+1/rfzm9XUlKWd1jq/7LbQ70fW+0OsY0BwbDq6b87XcPzqsS1v/GemtFYvW+oY1hZ07CdRkdXueaqGEssdj7mn7Rm21OO5lWNj73/8PZ6WJ/2pSU1ep4bvrLdk0gfqHTQ9mPIbFvUNpYL2P1/R9Kn0f9G/Osv9X/k9WunfWvA6jdRVRVcPtLzWx7g0NDhj0dS936T1P5jKaz+b/n67a7fTWri4uPh41WJjMFdGOxtdVY4axg2Mbr/JWB0+no/TvrBm4mSzGryn2jPwLrBWLXDL31ZLanvi19zctmTv2f8AafKxaElPSJJJJKeT6r9cOhdRyv8Amz0/PZ9vzLhiXPG5ra6zuOX6eQ9noPyHUsfjY2x1n65fR/wi0PrDhdVvI/Z7XPrfh5WM6plxpAus+z2YV74cz2VfZ76d7P0rPtH+hfcuU6b/AInsfB+sdPUhnl2BjXNyKcYM/SSx3qU02XOc5vpsc2vfZs/Tf8D/ADi9HSU830z6w9P6bY/oPUcnbkYVoxqrnB7mOqcG2YH2jL2ehVleg9mPazItrtuyavU/w9K087oeHl3/AGusvw88ANbm4xDLYBBDLZa+nKq0/mMyrIp/4NYvVcLqmFiZPSazjnpnWMmyr7W8u9aj9oWWPyGOxW1+jk/pr7KsS77TTs9ej1qbvS/TdWkpw7+u5XRKXW/WKtjcOuAeqYoJq9x2s+04bjblYrnONdbPSdnU/v30fzav9J6z0zrWGM7peQ3KxyS3e2QQ4fSZZW8Nsqfru2WMWb9dfqs3609EPTvW+z3V2Nvx7CJaLGh7Ntrfpem+u2xn8j+c/wCDVb6g/Uz/AJp9PvruvGRl5b2vuewEMaGDbXXXu+lt32fpPYkp/9L1QkASdAOSvPP8YX1Rx/rTm9Mzum5tf2m5/wCz4nfWWsF+Y92+qfTsx2V5W9n+F9lf6L/Cd/k49eVjW41smq9jq3gGDteNjtf6pWJ0/DDfrE5hs9cdNxpfaWVsL781zS9z249dNXrU43TqvzN/p5v7iSnQ6B0enofRsTpVLzYzFZt9Q6FziS+yzbLtu+xz3bPzFoJJJKUvG/q1/i5+sOF9d6xfa2urpj6syzLa+TbU59npMZWHeruy/s99V3qfzbPV/nP0Xr+q9b/aH7Of+zg514fUXMYWh7qvVr+2MpdY6pjbn4nrel+kr9/+ErVL6vMv+3dSsyXutvq+y4ttjw1rnPrxqsmx72Ul1LNz87dsp/RfuJKdxcf1dt/TbOuHL6X9vx+ruqFOaHU7Gh9dWBVh9Q9Z1V1GPjZTfX9auvKqZVlWX/zvrLsEDNxm5eHfiugtvrfWZEiHtLNR80lMsWqynGppssN1lbGsfc7Qvc0BrrHc/T+kirC+pr7bejnItrsqfk5F95bZZ6oHq22XenX77HVeh6n2e6p7aX/aarvZ/hH7qSlJJJJKcz6yU2W9EyjV/O44blVf18Z7M2r/AMEoaqeH1i3O+sFVdZ2YnpdQqdXv3F1mHkYeH6lle39C7dZkel+kf6mPbXZZ/o2WvrP1np3Rei5GZ1JzhQW+lsZBe91g2Nrqa4ta56z/AKj/AFo6b9ZunfaKGFmfjNrZmte0b95ZHqte2d9Vvp2Nrf8AT/R/zaSnpUkkklP/0+9+tX1kxfqz0ezqeSw2kEV00tMGyx07K98O9Nvtc97/ANz9/wDm1j/4uvrPi/WLH6lkNrdTmnJ9fLrJ3NAsb6GH6Vm1m5rcXDrpd/wlPqf4RdN1PpmD1bBtwOoVC/FuAD6zI4O5pDm7XNc1w+k1VugfVzpH1exDidLp9Jj3b7HOJc97o27rHv8A+p/m0lOmkkkkpHffTj02ZF7xXTS0vsscYDWtG573H91rVyH1J+ufQ+tdR6njY1j25eRkPyq2XN2+pU1lOK30iHP91dVFe6t36T/wRddlY1GZi3YmQ3fRkVuqtZxLHgse3T95rlyf1T/xadK+rXU39SZkWZd4DmY/qNa0Vtdo4+3+cu2fo/U/R+z/AASSnsUkkklPnX1f/wAZfQ/+cWT0aplv2HNzXHByj9H1LtnqMdT9NlGTnfaMiu7/ALtfpqafevRVyuJ/i0+q2J10dbpqsba1/q1Yu4fZ67J3C2qrZvbsf762er6Vf+Dr/m11SSlJJJJKc/rvQ+n9e6Zb0zqDC6i2CHNMPY4fQtpfDtljP/MLP0aqfVb6o9J+q+JZj9OD3uvcHX32kGx5b9Brixtbdle53ps2rbSSUpJJJJT/AP/ZOEJJTQQhAAAAAABVAAAAAQEAAAAPAEEAZABvAGIAZQAgAFAAaABvAHQAbwBzAGgAbwBwAAAAEwBBAGQAbwBiAGUAIABQAGgAbwB0AG8AcwBoAG8AcAAgADcALgAwAAAAAQA4QklNBAYAAAAAAAcACAAAAAEBAP/hEkhodHRwOi8vbnMuYWRvYmUuY29tL3hhcC8xLjAvADw/eHBhY2tldCBiZWdpbj0n77u/JyBpZD0nVzVNME1wQ2VoaUh6cmVTek5UY3prYzlkJz8+Cjw/YWRvYmUteGFwLWZpbHRlcnMgZXNjPSJDUiI/Pgo8eDp4YXBtZXRhIHhtbG5zOng9J2Fkb2JlOm5zOm1ldGEvJyB4OnhhcHRrPSdYTVAgdG9vbGtpdCAyLjguMi0zMywgZnJhbWV3b3JrIDEuNSc+CjxyZGY6UkRGIHhtbG5zOnJkZj0naHR0cDovL3d3dy53My5vcmcvMTk5OS8wMi8yMi1yZGYtc3ludGF4LW5zIycgeG1sbnM6aVg9J2h0dHA6Ly9ucy5hZG9iZS5jb20vaVgvMS4wLyc+CgogPHJkZjpEZXNjcmlwdGlvbiBhYm91dD0ndXVpZDoxNjkyOGExNy0xNzRiLTExZGItYTJmMC05OTdhYTEzMzJjNTInCiAgeG1sbnM6eGFwTU09J2h0dHA6Ly9ucy5hZG9iZS5jb20veGFwLzEuMC9tbS8nPgogIDx4YXBNTTpEb2N1bWVudElEPmFkb2JlOmRvY2lkOnBob3Rvc2hvcDoxNjkyOGExMC0xNzRiLTExZGItYTJmMC05OTdhYTEzMzJjNTI8L3hhcE1NOkRvY3VtZW50SUQ+CiA8L3JkZjpEZXNjcmlwdGlvbj4KCjwvcmRmOlJERj4KPC94OnhhcG1ldGE+CiAgICAgICAgICAgICAgICAgICAgICAgICAgICAgICAgICAgICAgICAgICAgICAgICAgICAgICAgICAgICAgICAgICAgICAgICAgICAgICAgICAgICAgICAgICAgICAgICAgICAKICAgICAgICAgICAgICAgICAgICAgICAgICAgICAgICAgICAgICAgICAgICAgICAgICAgICAgICAgICAgICAgICAgICAgICAgICAgICAgICAgICAgICAgICAgICAgICAgICAgIAogICAgICAgICAgICAgICAgICAgICAgICAgICAgICAgICAgICAgICAgICAgICAgICAgICAgICAgICAgICAgICAgICAgICAgICAgICAgICAgICAgICAgICAgICAgICAgICAgICAgCiAgICAgICAgICAgICAgICAgICAgICAgICAgICAgICAgICAgICAgICAgICAgICAgICAgICAgICAgICAgICAgICAgICAgICAgICAgICAgICAgICAgICAgICAgICAgICAgICAgICAKICAgICAgICAgICAgICAgICAgICAgICAgICAgICAgICAgICAgICAgICAgICAgICAgICAgICAgICAgICAgICAgICAgICAgICAgICAgICAgICAgICAgICAgICAgICAgICAgICAgIAogICAgICAgICAgICAgICAgICAgICAgICAgICAgICAgICAgICAgICAgICAgICAgICAgICAgICAgICAgICAgICAgICAgICAgICAgICAgICAgICAgICAgICAgICAgICAgICAgICAgCiAgICAgICAgICAgICAgICAgICAgICAgICAgICAgICAgICAgICAgICAgICAgICAgICAgICAgICAgICAgICAgICAgICAgICAgICAgICAgICAgICAgICAgICAgICAgICAgICAgICAKICAgICAgICAgICAgICAgICAgICAgICAgICAgICAgICAgICAgICAgICAgICAgICAgICAgICAgICAgICAgICAgICAgICAgICAgICAgICAgICAgICAgICAgICAgICAgICAgICAgIAogICAgICAgICAgICAgICAgICAgICAgICAgICAgICAgICAgICAgICAgICAgICAgICAgICAgICAgICAgICAgICAgICAgICAgICAgICAgICAgICAgICAgICAgICAgICAgICAgICAgCiAgICAgICAgICAgICAgICAgICAgICAgICAgICAgICAgICAgICAgICAgICAgICAgICAgICAgICAgICAgICAgICAgICAgICAgICAgICAgICAgICAgICAgICAgICAgICAgICAgICAKICAgICAgICAgICAgICAgICAgICAgICAgICAgICAgICAgICAgICAgICAgICAgICAgICAgICAgICAgICAgICAgICAgICAgICAgICAgICAgICAgICAgICAgICAgICAgICAgICAgIAogICAgICAgICAgICAgICAgICAgICAgICAgICAgICAgICAgICAgICAgICAgICAgICAgICAgICAgICAgICAgICAgICAgICAgICAgICAgICAgICAgICAgICAgICAgICAgICAgICAgCiAgICAgICAgICAgICAgICAgICAgICAgICAgICAgICAgICAgICAgICAgICAgICAgICAgICAgICAgICAgICAgICAgICAgICAgICAgICAgICAgICAgICAgICAgICAgICAgICAgICAKICAgICAgICAgICAgICAgICAgICAgICAgICAgICAgICAgICAgICAgICAgICAgICAgICAgICAgICAgICAgICAgICAgICAgICAgICAgICAgICAgICAgICAgICAgICAgICAgICAgIAogICAgICAgICAgICAgICAgICAgICAgICAgICAgICAgICAgICAgICAgICAgICAgICAgICAgICAgICAgICAgICAgICAgICAgICAgICAgICAgICAgICAgICAgICAgICAgICAgICAgCiAgICAgICAgICAgICAgICAgICAgICAgICAgICAgICAgICAgICAgICAgICAgICAgICAgICAgICAgICAgICAgICAgICAgICAgICAgICAgICAgICAgICAgICAgICAgICAgICAgICAKICAgICAgICAgICAgICAgICAgICAgICAgICAgICAgICAgICAgICAgICAgICAgICAgICAgICAgICAgICAgICAgICAgICAgICAgICAgICAgICAgICAgICAgICAgICAgICAgICAgIAogICAgICAgICAgICAgICAgICAgICAgICAgICAgICAgICAgICAgICAgICAgICAgICAgICAgICAgICAgICAgICAgICAgICAgICAgICAgICAgICAgICAgICAgICAgICAgICAgICAgCiAgICAgICAgICAgICAgICAgICAgICAgICAgICAgICAgICAgICAgICAgICAgICAgICAgICAgICAgICAgICAgICAgICAgICAgICAgICAgICAgICAgICAgICAgICAgICAgICAgICAKICAgICAgICAgICAgICAgICAgICAgICAgICAgICAgICAgICAgICAgICAgICAgICAgICAgICAgICAgICAgICAgICAgICAgICAgICAgICAgICAgICAgICAgICAgICAgICAgICAgIAogICAgICAgICAgICAgICAgICAgICAgICAgICAgICAgICAgICAgICAgICAgICAgICAgICAgICAgICAgICAgICAgICAgICAgICAgICAgICAgICAgICAgICAgICAgICAgICAgICAgCiAgICAgICAgICAgICAgICAgICAgICAgICAgICAgICAgICAgICAgICAgICAgICAgICAgICAgICAgICAgICAgICAgICAgICAgICAgICAgICAgICAgICAgICAgICAgICAgICAgICAKICAgICAgICAgICAgICAgICAgICAgICAgICAgICAgICAgICAgICAgICAgICAgICAgICAgICAgICAgICAgICAgICAgICAgICAgICAgICAgICAgICAgICAgICAgICAgICAgICAgIAogICAgICAgICAgICAgICAgICAgICAgICAgICAgICAgICAgICAgICAgICAgICAgICAgICAgICAgICAgICAgICAgICAgICAgICAgICAgICAgICAgICAgICAgICAgICAgICAgICAgCiAgICAgICAgICAgICAgICAgICAgICAgICAgICAgICAgICAgICAgICAgICAgICAgICAgICAgICAgICAgICAgICAgICAgICAgICAgICAgICAgICAgICAgICAgICAgICAgICAgICAKICAgICAgICAgICAgICAgICAgICAgICAgICAgICAgICAgICAgICAgICAgICAgICAgICAgICAgICAgICAgICAgICAgICAgICAgICAgICAgICAgICAgICAgICAgICAgICAgICAgIAogICAgICAgICAgICAgICAgICAgICAgICAgICAgICAgICAgICAgICAgICAgICAgICAgICAgICAgICAgICAgICAgICAgICAgICAgICAgICAgICAgICAgICAgICAgICAgICAgICAgCiAgICAgICAgICAgICAgICAgICAgICAgICAgICAgICAgICAgICAgICAgICAgICAgICAgICAgICAgICAgICAgICAgICAgICAgICAgICAgICAgICAgICAgICAgICAgICAgICAgICAKICAgICAgICAgICAgICAgICAgICAgICAgICAgICAgICAgICAgICAgICAgICAgICAgICAgICAgICAgICAgICAgICAgICAgICAgICAgICAgICAgICAgICAgICAgICAgICAgICAgIAogICAgICAgICAgICAgICAgICAgICAgICAgICAgICAgICAgICAgICAgICAgICAgICAgICAgICAgICAgICAgICAgICAgICAgICAgICAgICAgICAgICAgICAgICAgICAgICAgICAgCiAgICAgICAgICAgICAgICAgICAgICAgICAgICAgICAgICAgICAgICAgICAgICAgICAgICAgICAgICAgICAgICAgICAgICAgICAgICAgICAgICAgICAgICAgICAgICAgICAgICAKICAgICAgICAgICAgICAgICAgICAgICAgICAgICAgICAgICAgICAgICAgICAgICAgICAgICAgICAgICAgICAgICAgICAgICAgICAgICAgICAgICAgICAgICAgICAgICAgICAgIAogICAgICAgICAgICAgICAgICAgICAgICAgICAgICAgICAgICAgICAgICAgICAgICAgICAgICAgICAgICAgICAgICAgICAgICAgICAgICAgICAgICAgICAgICAgICAgICAgICAgCiAgICAgICAgICAgICAgICAgICAgICAgICAgICAgICAgICAgICAgICAgICAgICAgICAgICAgICAgICAgICAgICAgICAgICAgICAgICAgICAgICAgICAgICAgICAgICAgICAgICAKICAgICAgICAgICAgICAgICAgICAgICAgICAgICAgICAgICAgICAgICAgICAgICAgICAgICAgICAgICAgICAgICAgICAgICAgICAgICAgICAgICAgICAgICAgICAgICAgICAgIAogICAgICAgICAgICAgICAgICAgICAgICAgICAgICAgICAgICAgICAgICAgICAgICAgICAgICAgICAgICAgICAgICAgICAgICAgICAgICAgICAgICAgICAgICAgICAgICAgICAgCiAgICAgICAgICAgICAgICAgICAgICAgICAgICAgICAgICAgICAgICAgICAgICAgICAgICAgICAgICAgICAgICAgICAgICAgICAgICAgICAgICAgICAgICAgICAgICAgICAgICAKICAgICAgICAgICAgICAgICAgICAgICAgICAgICAgICAgICAgICAgICAgICAgICAgICAgICAgICAgICAgICAgICAgICAgICAgICAgICAgICAgICAgICAgICAgICAgICAgICAgIAogICAgICAgICAgICAgICAgICAgICAgICAgICAgICAgICAgICAgICAgICAgICAgICAgICAgICAgICAgICAgICAgICAgICAgICAgICAgICAgICAgICAgICAgICAgICAgICAgICAgCiAgICAgICAgICAgICAgICAgICAgICAgICAgICAgICAgICAgICAgICAgICAgICAgICAgICAgICAgICAgICAgICAgICAgICAgICAgICAgICAgICAgICAgICAgICAgICAgICAgICAKICAgICAgICAgICAgICAgICAgICAgICAgICAgICAgICAgICAgICAgICAgICAgICAgICAgICAgIAo8P3hwYWNrZXQgZW5kPSd3Jz8+/+4ADkFkb2JlAGRAAAAAAf/bAIQAAQEBAQEBAQEBAQEBAQEBAQEBAQEBAQEBAQEBAQEBAQEBAQEBAQEBAQEBAQICAgICAgICAgICAwMDAwMDAwMDAwEBAQEBAQEBAQEBAgIBAgIDAwMDAwMDAwMDAwMDAwMDAwMDAwMDAwMDAwMDAwMDAwMDAwMDAwMDAwMDAwMDAwMD/8AAEQgBVAIfAwERAAIRAQMRAf/dAAQARP/EAaIAAAAGAgMBAAAAAAAAAAAAAAcIBgUECQMKAgEACwEAAAYDAQEBAAAAAAAAAAAABgUEAwcCCAEJAAoLEAACAQMEAQMDAgMDAwIGCXUBAgMEEQUSBiEHEyIACDEUQTIjFQlRQhZhJDMXUnGBGGKRJUOhsfAmNHIKGcHRNSfhUzaC8ZKiRFRzRUY3R2MoVVZXGrLC0uLyZIN0k4Rlo7PD0+MpOGbzdSo5OkhJSlhZWmdoaWp2d3h5eoWGh4iJipSVlpeYmZqkpaanqKmqtLW2t7i5usTFxsfIycrU1dbX2Nna5OXm5+jp6vT19vf4+foRAAIBAwIEBAMFBAQEBgYFbQECAxEEIRIFMQYAIhNBUQcyYRRxCEKBI5EVUqFiFjMJsSTB0UNy8BfhgjQlklMYY0TxorImNRlUNkVkJwpzg5NGdMLS4vJVZXVWN4SFo7PD0+PzKRqUpLTE1OT0laW1xdXl9ShHV2Y4doaWprbG1ub2Z3eHl6e3x9fn90hYaHiImKi4yNjo+DlJWWl5iZmpucnZ6fkqOkpaanqKmqq6ytrq+v/aAAwDAQACEQMRAD8A3+Pfuvde9+691737r3Xvfuvde9+691737r3Xvfuvde9+691737r3Xvfuvde9+691737r3Xvfuvde9+691737r3Xvfuvde9+691737r3Xvfuvde9+691737r3Xvfuvde9+691737r3Xvfuvde9+691737r3Xvfuvde9+691737r3Xvfuvde9+691737r3Xvfuvde9+691737r3Xvfuvde9+691737r3Xvfuvde9+691737r3Xvfuvde9+691737r3Xvfuvde9+691737r3Xvfuvde9+691737r3Xvfuvde9+691737r3Xvfuvde9+691737r3Xvfuvde9+691737r3Xvfuvde9+691737r3Xvfuvde9+691737r3Xvfuvde9+691//9Df49+691737r3Xvfuvde9+691737r3Xvfuvde9+691737r3Xvfuvde9+691737r3Xvfuvde9+691737r3Xvfuvde9+691737r3Xvfuvde9+691737r3Xvfuvde9+691737r3Xvfuvde9+691737r3Xvfuvde9+691737r3Xvfuvde9+691737r3Xvfuvde9+691737r3Xvfuvde9+691737r3Xvfuvde9+691737r3Xvfuvde9+691737r3Xvfuvde9+691737r3Xvfuvde9+691737r3Xvfuvde9+691737r3Xvfuvde9+691737r3Xvfuvde9+691737r3Xvfuvde9+691737r3Xvfuvde9+691737r3Xvfuvde9+691737r3X//0d/j37r3Xvfuvde9+691737r3Xvfuvde9+691737r3Xvfuvde9+691737r3Xvfuvde9+691737r3Xvfuvde9+691737r3Xvfuvde9+691737r3Xvfuvde9+691737r3Xvfuvde9+691737r3Vcnyq/m6/wAtf4TZ+faXya+YPUvXO86SIy12xqatzO/d941BJJD/ALlNkdbYfeG68W5kiYBaijjZrcA+/de6D/44/wA8b+U58sd0Y3ZHR3ze6kzu8M1KYMNtjeMO8en87makI0gpMRi+49r7BrMpWuqnTDAkkrnhVJ9+691a37917r3v3Xuve/de697917r3v3Xuve/de697917r3v3Xuve/de697917r3v3Xuve/de697917r3v3Xuve/de697917r3v3Xuve/de697917r3v3Xuve/de697917r3v3Xuve/de697917r3v3Xuve/de697917r3v3Xuve/de697917r3v3Xuve/de697917r3v3Xuve/de697917r3v3Xuve/de697917r3v3Xuv//S3+Pfuvde9+691737r3Xvfuvde9+691737r3Xvfuvde9+691737r3Xvfuvde9+691737r3Xvfuvde9+691737r3Xvfuvde9+691737r3Xvfuvde9+691737r3Xvfuvde9+691737r3Wph/wAKbP5wPbHw9291Z8D/AIbZDIQfLr5T0tOavcG2pKebdHX+wdwZs7P27RbYiSV6ml332TuUT0ePkZIzTQU0kqMXeP37r3Ref5eH/CQj440fX+L7U/mdbm7B787+35T0e5929cbf7C3FtLY2z8nlhNkcnis5u3b1Tj+wt9bpM1WqV1eMpR05qIn8cbhvIfde6Gn5q/8ACPj+Xl2p17m6j4YS76+KXcVBBNW7R+57A3p2j1flchDTVBpsTunG9jZfde86Kjqqtoj95QZZJafRfxSglffuvdFz/wCE5f8AM/8Ak51X8pewv5Jv8xbK5ar7g6sk3HhekN1buzK5XPQZLYdB/FMx1XkM/XzpWbkxOQ2dEcxtusYyzS0cTRkWeP37r3W7x7917r3v3Xuve/de697917r3v3Xuve/de697917r3v3Xuve/de697917r3v3Xuve/de697917r3v3Xuve/de697917r3v3Xuve/de697917r3v3Xuve/de697917r3v3Xuve/de697917r3v3Xuve/de697917r3v3Xuve/de697917r3v3Xuve/de697917r3v3Xuve/de697917r3v3Xuve/de697917r/09/j37r3Xvfuvde9+691737r3Xvfuvde9+691737r3Xvfuvde9+691737r3Xvfuvde9+691737r3Xvfuvde9+691737r3Xvfuvde9+691737r3Xvfuvde9+691737r3Xvfuvde9+6918/D5ERUe6/wDhbL01iO3CF2bt/JdSy9dGtAeBqvB/Cio3vsMUqzaUUt3u7rHpJtUXI9fHv3XuvoH+/de697917r5+H83SKj2t/wAK4/5aOX6oIbeO5sn8H5e0hRAJOtZlO5d77I3SKtodTuf9BNFQs+sC9OQD6LH37r3X0D/fuvde9+691737r3Xvfuvde9+691737r3Xvfuvde9+691737r3Xvfuvde9+691737r3Xvfuvde9+691737r3Xvfuvde9+691737r3Xvfuvde9+691737r3Xvfuvde9+691737r3Xvfuvde9+691737r3Xvfuvde9+691737r3Xvfuvde9+691737r3Xvfuvde9+691737r3Xvfuvde9+691737r3Xvfuvdf//U3+Pfuvde9+691737r3Xvfuvde9+691737r3Xvfuvde9+691737r3Xvfuvde9+691737r3Xvfuvde9+691737r3Xvfuvde9+691737r3Xvfuvde9+691737r3Xvfuvde9+691737r3Wlh/wAKkP5cnfididEfzhPhXQ5qXur4vf3Zi7Woto02RqNz0+E6+3E+6+u+0sdS4+o+5yUW062pqKDL08aK0mMeEkskbr7917o9P8tn/hUL/Lw+XPVe2qb5Jdu7L+IXyHx2KxVHvzafbuVG1uusxm/DJBXZ3YvZeTip9pPgqyppmmFLkKqjraRZkRkcDyH3Xuh3+a//AApI/lVfETrrO7g2z8leuvlF2RFTTxbS6s+OG68T2hNuDL/a1M1JHlN8bVly2xNr4bzQqk9VU1+tNY8cMrHT7917qgf+QB8T/kx/M3/mT9jfz2Pmht6rwu06PL5qv6Bw2Tiyq47P7wq8EdlbZGy4shNBIOvOn9jMaejqQjRVeSMciICkjH3Xut+f37r3Xvfuvde9+691737r3Xvfuvde9+690Xj5TfJrr/4g9Lbq757RwfaGe2Ps2NJs7T9SdXb17c3TSUrxzSNkpts7FxOXydFg6QQE1eSqVgx1CpD1M8MZ1j3XuquOkv8AhRH/AC2e/uoN8dy7C3P3HU4vafYlH1Vt3YadNbo3D3J2/ves2qN4/wAL6e6k2Gd4b53hT4/EXOQq3o6SkxZ0vWSwQSRzP7r3Ss+JX8/b+W98ts53Hs6j7L3R8dewehNt7g3n2l198tdqDojc22dnbTmgp91bjqps9la3ba0+2aipRchSNkFydGG1y0yx+v37r3Qay/8ACkL+Wxh+9dhdI7+qvkl0/R9rZKPGdXd2d0fGzsnqvpLf7VWSocTjsnt7cG86DFbtG2a+uydOP4vV4OlxVJHMstXUU8RLj3Xur7Pfuvde9+691737r3Xvfuvde9+691737r3Xvfuvde9+691737r3Xvfuvde9+691737r3Xvfuvde9+691737r3Xvfuvde9+691737r3Xvfuvde9+691737r3Xvfuvde9+691737r3Xvfuvde9+691737r3Xvfuvde9+691737r3X/9Xf49+691737r3Xvfuvde9+691737r3Xvfuvde9+691737r3Xvfuvde9+691737r3Xvfuvde9+691737r3XvfuvdVG/zs/5m2T/AJT3wezPyb211ZJ23vrN9gbZ6h69wVca6LZOF3jvDEbozVDuvsytxc1PlaXY+HoNpVKvHSyQz1+Smo6FZ6Y1X3UPuvdV3fMjuj+cP8WP5deO/mb7I+YnVPa+S2z1z1h3n2z8UOw/h/tjrXr+LYe/49rVef25s7M4zedb3Fgc1sCHca+eDMbgqqmsgp6oiWCpWCmb3XurwvgB8uMH88Phl8dfl1gNvTbRpO8uucbuuv2nNWHJf3W3NTVNZgN5bcgyhpqJstQ4Pd2HrqWmrDBA1XTxJMYoi5Rfde6OD7917r3v3Xuve/de697917r3v3Xuq8vnD/NX+A/8uvCT1/yr+RWytj7mNB9/iOqsRUSbx7j3HHJFrozh+stsJk91JRV7lY48hWQUmKjZwZqqJLsPde61z8r/ADof5wv82ioyGx/5MPwRyHSvReWmrMNV/Nn5X0GEOMTHM8lHVZPA0WcjrupqSvoHbRVY2hTsev8AG2r7WK50+691rb/zrv5APcf8s/4/9PfLjtP5B4Tvvfnd3d24tpfIWt2vsKXaHX2wd5bxws+8NozbelpGGVzeIyk+39w/eVrYrDRhxSQwUETG0vuvdK347/ye/n78EN14Ptzvr+SBtr+Y5saCCi3JtKr2R3jX77wW4MZWUiVdDlafaXT2+t8fx+lqaeZZqaLK7Skje6sYJFtf3Xutk3ZX/CsroLomnwHXfzI/lkfNP4LyY+CmwOK2rRbCwWU2vtqKkiKRY2mxu9KH495qkxlDTwsEiosJJIirZYAAbe691Zv0p/wpR/ku94faU2L+aO1euszU+MS4XuvZ/YXUv2DyW0rV7n3htWg2EbHhmhy8yJb1MBYn3Xurb+pfkZ8e+/KAZXorvfprunFtCtQuS6l7Q2R2NQNTsAVnFZs7OZmnMLBgQ2rSQfr7917oZffuvde9+691737r3Xvfuvde9+691pK/8I2dg7Jp9u/zKOwodq4GPfMPySxOwabda4yl/jtFsmGhzWc/urj8gYzPj8DPl9FTPTQGOKomggaUOaeDx+690zfLPqHq/c//AAs2+DWI3FsHaubxW8Pj1/pN3Vjcnh6Osodw9g9c9CfKXMbE3hmKSeN4K/PbUyvWG3aihnkVngmw1I6+qFSPde6NV/wsy2zt/Kfyqevdx5DD4+rz+1/l/wBXjb2alpozk8PFnOvu26LM01DWgCoho8rTwxCpgDeGZoIXdS8MTJ7r3WzN8X8hXZb40fHfK5OrqK/JZPozqTIZCuq5Xnqq2urNg7fqaurqZ5C0k1RU1EjO7sSWZiTz7917oc/fuvde9+691737r3Xvfuvde9+691737r3Xvfuvde9+691737r3Xvfuvde9+691737r3Xvfuvde9+691737r3Xvfuvde9+691737r3Xvfuvde9+691737r3Xvfuvde9+691737r3Xvfuvde9+691737r3Xvfuvde9+691//1t/j37r3Xvfuvde9+691737r3Xvfuvde9+691737r3Xvfuvde9+691737r3Xvfuvde9+691737r3Xvfuvde9+691TT/Ov/mv7D/lT/HLZ28cl1XH3x2/3dvyHrvo/pyqyNLiMPntyY2GHNZDdW6snUUeRmpdr7NmNCXWlppqyfJVtFDH4FkkrKb3Xuq+P5tPQPzY3T/Jw+Y/cnzl+VGUj7Do+g6jdtZ8Wvi5hsF1b8ZdkZieuwTHaW4dz1lLu3vbvD+AzTeOonyG7KLb2RmjLfwbx6S3uvdHf/4Te/8Abkr4Ef8AiP8AsH/39/aHv3Xurvvfuvde9+6914m3J4A5JP49+691RB8+P+FGf8sr4HT5PZtb2y3yR7ypJpMdT9I/Gn+G9j52nzfk+2jxm7N40+Qp+vNnVMFc6R1NHU5N81ECTHj5mXR7917qpsdpf8KWv5zg8fUuyML/ACa/htuRrJvjds2cpPkXuTbFVd/LishW4rHdtVGQaleOejrMPhtgY+rjay5OVCx9+691Yd8Hv+ExH8un4rZuLtTvDE7i+ePyJq67+O53tX5PmPc22ptyyy/cV2Yw/Uc9TktqyyVlYqzibccu58lDMC0datyPfuvdbFdBQUOLoaPGYyjpMdjcdSU9Bj8fQU8NJQ0FDSQpT0lHR0lOkcFLSUsEapHGiqiIoAAAA9+691WP/Oe+H3+z0fyyvlv8fMfi/wCK72yfWGR331XTxRCStk7W6rmg7F2Fj8fIA0lNNuTObbjxErryaXITKQVYg+690Vb/AITU/MH/AGcD+Ub8c63L5T+Jb++PNNkPi52DrlMtTFWdQwY+l2HLUvITUTVGQ6fyu3KiaWT1SVUkvLEE+/de6vZzGGw+4cZWYXP4rG5zDZGE0+QxOYoaXJ4yvp2IYwVlBWxT0tVCWUEq6Mtx9PfuvdVu92fyZP5VHyF+7l7S+Avxmr8hXh/vs/tHrXEdW7rrWk/VLV7u6rTZe56ioF/TI9WZF/BHv3Xuqke3P+EgP8qbeVec905lvk98X9wUcxq8FN1X3IdyYrFVoJ8MjR9u7f7E3TLDBf0+HM0s97fvfUH3XugZH8gP+cN8bf8AKPg3/Pr7umxtEQ+C64+ReP33k9m4zxf5qF/vN7dy7SmjksBIYtpwKQLFHAA9+6912d+/8LEPiqSNwdVfCL+YZgsaf9yWa29UbK2vmq6jj/zlTiqHGbg+KWUkq5APQse3qp7m/wBswvb3XuvD/hS982/jyftfn/8AyNPl11BjMf8A8XbsvrVd3ZraNQENp3xVNvLrHBbTljgCltUe8KlTcAlbam917o0vSf8AwrX/AJNXbP2kW7O0O4vj1XVhSNKPujpTc9QkU78CKpyvTUvb+CpE1cGWaqjhUcs6j37r3VjFd/Oj/lq1fVuW7Q6u+UGxPkXLizjo4epfjbVjuf5DZqpy9ZDQY6mwvQO0Gq+1qjzVU4Ek0uLhpaWNZJaiWKGKWRPde613/wDhKZP318ZtzfKjoH5H/CD529GZX5Ndzf6XetOxuzfiZ3NtHpqDFYfZ+68jk8JvXszObVoNvbJzTU1AiULV7x0eSq6mKkp52qpYYZPde6DL5Edrd15v/hS78Yv5je2f5eH8z3cfxW6G6lynTG795Y74B/JRctkcnm+qvkJsGq3TtjbNVsKDMZbauGzHcFE8khjiqqmno6h6aCYGDze690cj/hVbl+1/lH8J+tvih8bfiL83e9Oz9w9rdS991dd1h8Q++d3bF2tsak2j2TQvQbp3ph9kVWHxe/o8hm6eKo28WbLUGotWQ04Mfk917rYC/ls91S92/DnpfJZHpn5C9C7l2BsbYvVW8+uPkv0pvzozf+L3dszrzZ8eblx239+4jEz7n2i89cI6POY01OMq5Yp4UlFRTVEMXuvdHt9+691737r3Xvfuvde9+691737r3Xvfuvde9+691737r3Xvfuvde9+691737r3Xvfuvde9+691737r3Xvfuvde9+691737r3Xvfuvde9+691737r3Xvfuvde9+691737r3Xvfuvde9+691737r3Xvfuvde9+691737r3X//19/j37r3Xvfuvde9+691737r3Xvfuvde9+691737r3Xvfuvde9+691737r3Xvfuvde9+691737r3Xvfuvde9+691TL/Ot/k/7S/m9/H/AGL1+ez6zpPuHpfelVv3pztKDCTblx+Lrspj4sduPbW4cFT5fBVc2D3LFQ0UhqqWqirKCsoKeeMSoktNP7r3Rcsz/KR/mDfL7427w+NH8zT+Z3VdndcZfr2v2ni9s/GrpfBdPzbo3hDh2pNm9i9675erXcXadDtHPR02ZO1qODb+JyuTpInyEtVCPB7917oy/wDJs+BHzF/lydAUfxg79+T3UXffS/WkOWxXQ+H2N0xmNj7x2zjc5urKbuyc27d8V+8q2nztK+QzdUtNj/4Q89KJbtk541jhT3XurZ97b52T1ptXN767G3jtbYGyNtUT5Lce8d7bgxO1dq4DHRFRJX5vcOdq6DEYqijLANLPNGgJFz7917rWU+WP/Cpv4q7V3t/oA/l0dQdqfzLvkvl6ioxO3cB0rt/cVP1h/F4z4H8W6abbub3bvxaOWRJh/dzB12Mq4VYfxSn4f37r3RUR/Li/4UAfziyct/Mx+VuP/l5/FXcX7s3xE+N4Q7yzu36oapMHvCg29uKsopaLJ0ToT/e7dW5pqOpB14SBl0e/de6vf+A38kf+W/8Ay4ocVlfj70Bhcp2pjYUWTvztlqfsnumpqRGIpq7Hbpy9FFjtjyVcagTQbZoMHRy2u0JNyfde6tj9+691737r3Xvfuvde9+691ppfyef+xcP8/D+aF/K/yH+4Xqj5I6Pll8aMdJ+xiI9JffSbX2nT+kSfb9fdh5HHVUgBv/cMqTdLt7r3W5b7917qsXef85v+WBsPcO7dt5z5idaV1RsDKR4Tf+c2XRbz7I2HsLLyVC0hxu+Oy+u9r7p672fWU9YTDPHkspTNTzI8cuh43C+691YF1v2Z1z3HsjbvZnUu/Nn9m9d7vx8eV2tvrYW48Ru3aW4sbKWVK3DbgwVXXYvI0+tGUtFKwV1KmzAge690uPfuvde9+691737r3RWO7Pg38MPkl94/f/xP+OfctXXazUZXsjprr7d2eEsl9VTTbgzO36vN0VZ6jaeGojmFzZh7917qobu3/hLH/Jd7kFZU4742bi6Tzdb5DLneku2+xNuGJnvpaj2runOb069ofCSSohwyKfowYAAe690Rl/8AhKn2H0M7VX8vT+cX84vizHROZcXt7M5Sv3Di5lBLLj8jU9Sb26Ix7Uk3CyF8TUxstw0Dg29+6911/sr3/Cuf4rgN1d84fid84tnY42x20e08Pt7Fb1yAi5JyuW3Z1bsPL/5SgVRq35UWIP6D63917rj/AMPRf8KDPjJ+38zP5EOb7UoqD9vL7j+Jee3fkcfTwR2WXKtJsNvljiDDEg8ja6ymhb6GSIcr7r3S+2B/wsE/l8jNLs35MdB/MX4p73pxGcxj98dYYXc2FxOtmjPkfB7opt/voljcHVtmK4Xi7XUe691ar0l/Pq/k9/IA0cWw/n90HiKyu8aQY7tvOZPoTIPUyWVKJKbvDE9emeteU+NI4jIZXIEevUt/de6tK2Zv3Y3Y2Fg3J17vTae/Nu1VjTZ/Zm4sPujC1GpQy+DK4SsrqGW6m40yHj37r3Ss9+691737r3Xvfuvde9+691737r3Xvfuvde9+691737r3Xvfuvde9+691737r3Xvfuvde9+691737r3Xvfuvde9+691737r3Xvfuvde9+691737r3Xvfuvde9+691737r3Xvfuvde9+691737r3Xvfuvdf//Q3+Pfuvde9+691737r3Xvfuvde9+691737r3Xvfuvde9+691737r3Xvfuvde9+691737r3Xvfuvde9+691737r3XvfuvdFt+TnzD+Lvwx2HL2X8p+9ut+jtnKs/2VfvvcdJjsjn6imQST47aO2ojUbn3pmUibV9jiaOtrGW5ERAPv3XutYfsn/hSl8jPmhvPOdE/yKvgN2b8pt1Us/wDCcj8j+4NuV21+ndozVSlKfLS4A5bb9BiMfUQyiWjrN47j2wROmmTG1CHS3uvdQNlf8J0vml8/d1YPub+ez/MD7C7kamq0zeJ+KHx/zS7f6t2lPKDKtBJmkwmG2VgZvt3FJkY9s7Xp6udUumdmIWb37r3WzV8Tvgx8RPgxskdf/E34/dcdJbflgp4MrU7TwituvdBpRanqd7b8y0mS3vvivhHC1GXyFbMosAwAAHuvdGv9+691737r3Xvfuvde9+691737r3Xvfuvdacf/AApWxGT+FHzN/lTfznNmUFUqdEd04/oDvqpxkLvXZbrHNVOZ3bi8LeAa448xsbI9hYqSWQMvkydNGOSqt7r3Q1f8KzPnVvX48fyw9nbN6L3bNiqz5pdh47rbKb125WTRzT9GjZeX3pvODAZmiZfCu+EjxOMmdXtU4XIVsQuJLj3Xuryf5d/xN6t+J3wL+OHxn2ZtLbtPtbbvSOzcfvSmjxWPek35u/ce1MfVdl7s3PT/AGsdNm8lvzcVdWVVc00ZWUT+PSIlSNfde61Zv5Ku+878GP8AhQR/Mr/lR7KyldB8UN15LsfuPqjq+KoefbPVm74G2P2Nt6DaNC8ZhwONTq7fdThK1IBG1auJxn3DzPSRt7917reC9+691737r3Xvfuvde9+691737r3Xvfuvde9+691737r3SD7B6s6x7awp232r1zsPszbreQtgOwdobf3nhW8qqst8VuPH5KhPlVAG/b9QAv7917qqnuv/AIT6fybe+vu5d4fAjpjbVbV+RxX9NRbl6Emp6h7kVUNL0tuDYmKkkRzq0TU8sLn9aMCQfde6q13n/wAI/vhThs3PvL4l/K75p/EvezX+xrtrdh4HdOExYUl6cUiR7f2h2AwikNz5NzPcAW0m7H3XukoP5Q//AAo++MPr+IX88ij7wxuPB+zwfy52/uTIy1VDFyuLjHY+B+WVNHI0A8MRWppFTjTJAAGT3Xuuv9nP/wCFZnxb9HdX8uP41fMjZ+PB+43b0nnMVS71y5hv5DS4vZHbDZSLyxjUv+/ES7Gy3IKD3Xus9N/wrHPSc8NB/MI/lNfOr4h1STR0dZWwYJtzUAqHdadaqOLtzbPx2mFJPMwZVieqYIwEbTGxb3Xuj+9Kf8Kgf5LfdH2lK/ysm6jzlX47YLuvrHsjZH2/ksD93uuDbea67p/Gxs181x9RdRf37r3VvPTHzA+J3yNhgm+P/wAm+gO7VqYxJHF1T3B1/v8AqlFrvHPR7X3BlKulqISCskUqJJE4KuqsCB7r3Ri/fuvdFK+X/wA6/iZ8DOuz2f8ALDu7ZvUG2ZjUQ4anzdVNWbn3XXU9NNVNjNn7Ow8GQ3RufIMkBGijpJVjJHkZAQffuvda+OT/AOFlH8pOg3QMBS7T+YuaxRmMX998Z05sGLa4QOFFQaTMdzYnenhYHUB/CPJYcqDx7917q8D4L/zSPgx/Mc27V5v4m98bb37l8TSxVe5OvMlFWbT7P2tDNLPCkuc2HuKCgzqURenYCrp46iha4tMSR7917qwP37r3Xvfuvde9+691737r3Xvfuvde9+691737r3Xvfuvde9+691737r3Xvfuvde9+691737r3Xvfuvde9+691737r3Xvfuvde9+691//R3+Pfuvde9+691737r3Xvfuvde9+691737r3Xvfuvde9+691737r3Xvfuvde9+691737r3Xvfuvde9+691WL88P5xX8vH+XHj6+L5MfIba+O7BpqP7qh6Q2I69gd2ZZpIRPRRDYG3pZ63bVPk4z/k9fnpMRipCCPuhb37r3Wv1L/Nh/nmfze5ZNvfyj/hkPhx8bs270sfzU+UkVAMnXYeoYwpntqTZ3E5PZEQ8UpSppNs4bsGvppAskdXAQSPde6Mb8Y/+EsnRVTvyL5EfzTfkP29/Mq+R2Renr8wOwt1bsw/UlFVRSGrp8a1FNn8h2DvXHYapYx08Vbl6LCzUw8b4aOM+Ie691s89b9YdbdN7MwvXPUfX+yuruv9t0wpNv7I692vhNm7SwlKOfBitvbeosdiaCNjyRFEuo8m59+690uffuvde9+691737r3Xvfuvde9+691737r3Xvfuvde9+691V7/Oe+H3+z0fyyvlv8fMfi/4rvbJ9YZHffVdPFEJK2TtbquaDsXYWPx8gDSU025M5tuPESuvJpchMpBViD7r3Wp8/SfYv8+T/hMJ8d6TqKFt7fL7+XjvWTZMO0op42zW/abpbbVVtFtgUM9U+ubcW6fj/u3beZpQ/wC7kc7jI6RXBnZ/fuvdbEfwA/nU/B7dXwR613j8lPkn1T8b+7ujOsdubA+UnTHeu9Md113D132r15gqXbO7aSr603jLi+wM0u58xiZKrDrRUFZPX/crSIHr456eP3Xuq1v5EHxU7j+Sf8y755fzy+6+tt2dU9efIXIbx2J8Ptn9h4irwW8tydb5/Pbchpu0a3B5CCkyWLx+O616+w2Hx1Qymmyr5TJPCDDT080vuvdbhPv3Xuve/de697917r3v3Xuve/de697917r3v3Xuve/de697917r3v3Xuve/de697917r3v3XusNRT09ZTz0lXBDVUtVDLT1NNURJPT1FPOjRTQTwyq0c0M0bFWVgVZSQRb37r3RAO6/5UH8tD5E/dzdw/BX4vbsyld5Pu9zRdP7P2zvSby316t87RxmB3gLsxYWrhZjqFjz7917qojuj/hIr/J87NlmrOvtqd9/G3JGT7qlqem+7M1lqalrlPlimSj7ux3cHjgWoAYxQSU+kemJovSV917ohPyO/kgfNz+Wf0L2/wDJX4wfz6vlT1t1P0R19ubsXK9bdq0u9s7tqTF7Uxk+Rix8SYbs/IbMyGVyUkKUVJE2z9LzzKupVYj37r3VUn8of+W58i/+FGPde7fnF/M87r7L7A6D6nqsb1lTSxtT7Uynau68TicZV1ezNpSbfxuH2/szauDxtXTVOaqsPSx1FRW1UcatHJrdfde63gcP/JD/AJROD2WdhUX8un4mz4NoFpzX5jqHbG4d6eNUMYYdj5+kyXYazlTcyjKCQtyWuAffuvdaif8AOv8A5KGa/k95rbX82D+U/uXevVe2Oq964qt7N6yosrndwxdYRbhztLSY3P4DJVdVW5fJdV5LL1sWMy2Jycs8VNFPCyzeO4T3XutzX+Vv86Nu/wAxz4MdD/LLCUlLicvv3bcuN7D23SSyzQ7W7P2nWT7d35g4nmgp3NEmdoJKikJU6qGohNyTf37r3Vgfv3Xuve/de697917r3v3Xuve/de697917r3v3Xuve/de697917r3v3Xuve/de697917r3v3Xuve/de697917r3v3Xuve/de6//9Lf49+691737r3Xvfuvde9+691737r3Xvfuvde9+691737r3Xvfuvde9+690Sb5pfzGPhX/AC9doUe8/l539szqKly8c8m2tu1r5DcG/wDd4ppoKepO0eu9rUOb3tuOCjnqo1qJ6WhkpqXWGnkjX1e/de6o6w3/AAsL/k/ZTfc20a2o+UG3NvxSKidpZnpKhn2JUKXZTNDj9vb6zvZqxqqhiJNuRvYiyk3A917oVvlD/wAKov5VfR+0dvVPSu/t3fMztHfGOx9VsnqboPaOfXIy1majj/glDvLcW9MVt7G7Qq6qqlWCfHxx5HcFLKdL4wsQD7r3RBPF/wAKYv5zoHmfD/yW/hruR7lE/vDQ/JbcO2qk2swDYfuepzEVPObhj1liq+nbkTWF/de6s5+B/wDwmo/lp/C2vo+wd27Br/mB3995/Gsl3F8nvsd9RR7imlNXWZbbXWk0B2Bh52yTfcwVddS5fN00wDLkWa7H3XutgaKKKCKOCCOOGGGNIoYYkWOKKKNQkcccaAIkaIAAAAABYe/de6ye/de697917r3v3Xuve/de697917r3v3Xuve/de697917r3v3Xuve/de697917rTS/k8/9i4f5+H80L+V/kP8AcL1R8kdHyy+NGOk/YxEekvvpNr7Tp/SJPt+vuw8jjqqQA3/uGVJul2917rbpznUPU259z0O9tydX9d7h3njPtv4bu7ObK21ltz4/7MlqT7HP1+MqMrSfak3j8cq6D+m3v3XuhE9+691737r3Xvfuvde9+691737r3Xvfuvde9+691737r3Xvfuvde9+691737r3Xvfuvde9+691737r3Xvfuvde9+691737r3VHf/CkrGboy38kf560u0DMMrFsXrbJ1fgDs/wDdfC979VZje4YIQfCdl0GQ8h+gj1E8X9+690Xj/hJrmNl5P+Sl0JRbXEAzm3uzPkJiOxzEyGRt5z9v7pz9A1UEAZZ/9HmbwIAa7eMIfoQB7r3WyX7917qrP+d5mNl4P+UT/MWrd+iBsHP8Te3sPQCoZFj/AL6bh2xV4DrgqZAVM69h5LFmID1GQKBY2Pv3XuqiP+Ea+M3RQfyk92VWfMxxWa+YvceT2R5Q4QbXi2D0zh6sU5YkND/fTE5e5Ww8mofUH37r3W2H7917r3v3Xuve/de697917r3v3Xuve/de697917r3v3Xuve/de697917r3v3Xuve/de697917r3v3Xuve/de697917r3v3Xuv/9Pf49+691737r3Xvfuvde9+691737r3Xvfuvde9+691737r3XvfuvdEm/mMfNLaH8vX4V9/fLzedHHl6XqLZj1u3dtSTzUw3fv/AHBkKHa3Xe0TU08FVPRwbj3tm6GlnqFjf7WmkknYaY29+6918Wv5XfK7vb5r97b5+RnyM3zkt+9nb9yUtXX19XLMuLweLWaaTFbS2lipJp4NvbQ29BOYaCghPjhjuzF5Xkkf3Xui6e/de6PJ/Lm+eHaf8t75a9X/ACr6opMXmslsrI/Zbr2jmqammxm+NgZeSGn3ftKSqnp6mfCVmWxaMKTI04FRQ1SxygSIJIZPde6+2D0d3Fsj5DdMdUd8daZE5br3uXrvZ3Z2y8i8TwS1W2d74Cg3Fh3qaeVUlpasUOQRZonCvFKGRgGBHv3XuhT9+691737r3Xvfuvde9+691737r3Xvfuvde9+691737r3Xvfuvde9+691737r3Xvfuvde9+691px/8KVsRk/hR8zf5U385zZlBVKnRHdOP6A76qcZC712W6xzVTmd24vC3gGuOPMbGyPYWKklkDL5MnTRjkqre691uF4jL4zP4nF57CV9LlcNm8dRZfEZShmSoosljMlTRVlBX0dRGTHPS1lJMkkbqSGRgRwffuvdOPv3Xuve/de697917r3v3Xuve/de697917r3v3Xuve/de697917r3v3Xuve/de697917r3v3Xuve/de697917r3v3Xuve/de6D3trq3ZPd/V3YnTfZOGg3BsDtPZW5dgbywtTHDJHktt7sxFXhMvTATxTxJM1FWuY3KMY5ArgXUe/de6+cj1L2180P+ElfzQ7L6w7P603N3x/L2743NJlMHnMXGKCn3TT0AMW3937Q3BKBgMN25hsAEocviK54oq+KIMpjWNHX3XutmXD/wDCsr+Slk9lndFb332Zt7OCBZR1xl/j32/PvNpChc0q1+A2tm+vPOrDSSc8I9R4ci5Huvda23z9/mV/LD/hTL3Ps/8Al6/y8Omd67M+K+P3ljty9hbu3lRxx12dgxOTMeI7A7cqsTVV+A2TsrbiK1dj8OtZPW1lbpLOZIlRPde633/gp8QOu/gZ8TOkfif1gDNtnqDZtLhKjMzU9NT1269z1k0+Y3jvDJrSwwI2Q3PujIVdY9wTGsqx3IQH37r3Rtffuvde9+691737r3XvfuvdI/K9h7AwdfPis3vjZ+HydL4vucdldzYXH19P54Y6iHz0dXWw1EPmp5kkXUo1IwYcEH37r3Th/ezav8B/vT/ebb/92P8Ano/4zjv4D/wM/h3/ABd/uf4f/wAXD9j/ADn+e9H6uPfuvdY8HvLaG55Z4Nt7q23uGeljWaphwecxmWlp4nbQks8dBVVDwxs/AZgATx7917pSe/de697917r3v3Xuve/de697917r3v3Xuve/de697917r3v3Xuve/de6/9Tf49+691737r3Xvfuvde9+691737r3Xvfuvde9+691737r3XvfuvdasP8AwsLw2+8p/J+qK3aM0kW39ufKDpLM9pIiuVqNiT0O+tvY+GYqyqsa9m53bkgLAjXGotcgj3XuvlS+/de697917r3v3Xuvss/8J4cNvvBfyW/5f9F2LNJPuCfqDK5nHvKrqy7E3H2PvfcPVsIDs7eOn6yymIjQ3sUUEACwHuvdXP8Av3Xuve/de697917r3v3Xuve/de697917r3v3Xuve/de697917r3v3Xuve/de697917r3v3XuqiP58XRHXnyL/lM/NPr7sTcm1NnQ4/qXKdj7K3PvHN4vbmJxvZnVM0HYuwaT+OZeopqTHy7nz+2o8OxD65KfIyxqG16T7r3Wtt/LZ/4Vo/Cf40/y+fip0f8AKXanyb3t310913R9S7rk6o2BsfceGk25sDI1u1+uMvJn98dqbANfV1HW2OxJrdCyzCtSa+o2Le691sH/AAY/4UIfyu/5gG66DrjqXvGr2D2vmJY4MH1b3tgD1luvcNTJDPP9ltuuqK/K7L3HklWnYfaUOWqKpiQFja49+691dj7917r3v3Xuve/de697917r3v3Xuve/de697917r3v3Xuve/de697917r3v3Xuve/de697917r3v3Xusc00VPFLPPLHBBBG8000zrHFDFGpeSWWRyqRxxopLMSAALn37r3QKdffJr429tbkyGzuqvkH0h2Zu7Eef+K7V6+7Y2HvPcmM+1adKn+IYPbmfyWTovt3ppA/kiXQY2BtpNvde6G/37r3Qa9u9YdR9v8AX+4ti957F2F2L1lk8fVPufbPZeAwe49oTUEVLUCpq8nQbhpqrGRLSUkkjfcMFaBSWDLa/v3Xuvk3fIX4E0Xz1y380b+Yv/Lt6H2Z1j8DvhBvjbeJ2F1xt/F7jkx/bm1NtzU8XYm7dvrPlpZ6dcXs2kO+s/SiWnGOweXpqaBVdAffuvdXwfDT+W38qttfHLrD+aL/AMJxflhmNnYPubbVLuLt/wDl694bopNybHfsHa8k+H391Rjtx7pvtjc9Rtjc1PXYzESbsgxeahxTpWwblU1aMfde6ta+H/8Awpv6zTseL4qfzbejt2/y1flhiXpsdk8jv/D7go+gtz1c0n29PmabPZyF8/1rh8zKjyUlTlGyW2zSp5huCQOo9+691tE7f3DgN24PE7n2rnMPubbWfx9LlsFuHb+Toszg81iq6JZ6LJ4nLY2epoMjj6yBw8U0MjxyIQVJB9+6908e/de697917r3v3XutOD/hWj/Kj6q7g+Iu8v5hvUfV2BxHya6Oz21Nw92by25QrQ5/tfpBsfjOvMpJvGOjEcW5s11nTU+DqqPI1QepoNvYyrp1cwrFGnuvdWd/H/u7+Xf2j/II2v3zuL47dLUvwgh+MWa7D7G+MNBsfbcfWFHvvY2dye4+xeu8Ds1aOrxsm5pPkjgq04edYTkancElNXR2rZEb37r3S4/kd/yreov5bXxG2FUw9U4Hanym7m2bh96fJHdkkFXW7rpNwbmml3ZD09TZfLyVGRx+zepEysWEp6OEwxVc+ONdULJVzSSn3XurrPfuvde9+691737r3Xvfuvde9+691737r3Xvfuvde9+691737r3Xvfuvdf/V3+Pfuvde9+691737r3Xvfuvde9+691737r3Xvfuvde9+691737r3RbPmF8W+tfmv8Y+6viv27SyVGwe69jZTZ+WqqaGlmyOBrpvHW7d3bhBWw1FLHuDZ25KKkyuPkdGWOso4mINvfuvdfGc/mPfy1vkx/LD+QGa6M+Q+062CimqsnVdX9p4/H1adf9w7Po6pYoN0bOysnlp2qI4Z4P4ljHlauxNRKsc66Xhll917qv337r3Vzv8AJp/k09+/zYe/cFh8Pgtw7O+L2ztw46bvnvmbHS0+Ew2Ep5YqzIbK2VkKyL7DP9nZ+g/ZpaWHzrjVnWsrFEIRJ/de6+xdsHYu0+r9i7M612Fg6HbOx+vtq7f2Ts7bmLgSmxuB2vtbE0mDwGHoKeNVjho8bi6GKGNQAAiAe/de6Vvv3Xuve/de697917r3v3Xuve/de697917r3v3Xuve/de697917r3v3Xuve/de697917r3v3XuvnR/PLsH5F/8ACkL+cVmv5cXRm/crsb4Q/Fvce4KXfW48RHkK3ASUPXOapNu9kduZykEdHQZnPZbd038H2rSVZECgxzAveQj3XutsD42f8J9/5Rnxq2DidlY74UdKdwZKkx7UuZ378htk4Lu7eW5K2YyPVZSrqewqHOYvDzyPKRFFjKWihp0VRGoK6j7r3VT/APN6/wCEtvxY7g6m3V3d/Ls6+pfjT8pOu8TNuzbWxeuajJ47rftKr289Rl12/SbYSslg2RvKrAK4uuwy00f3UcCSQMDrHuvdDN/wlx/mr7/+ePxk378dvkXl63LfJf4hVeCwGVzuc+6j3Jvnq7Miux2183uGGqp45f70bWyuEqcTk3dzJIVppHVXkb37r3W0t7917r3v3Xuve/de697917r3v3Xuve/de697917r3v3Xuve/de697917r3v3Xuve/de697917rTT/nsfNfbPaX81f4O/ymO3Owd0bB+EWQw9L37836bY9Fv/ACeX7ix9LjuwN2bT6O3Nj+qcRnuxa/Y+QxvW0CVtHjqcJO25Y6qoaIY6Gqpvde6CH+efuD+Wj218FMfnf5dWyK7r35qfGbf3V28/i/kPjf8AD75AdE9hYulXemA2zvLAbd3dgOkti0uNxON2dlajNCCatijSpw0MkH+UKgb3XutrH+W73f2b8kfgX8S+7+6sFktt9w9hdG7Fy3aeKy2Dl2zXDsOmxMWJ3jkZNuTU9LLgYc3uDHVFdDRmNPtoahI7en37r3VPn/CnP527u+Pnw42z8Mvj8a/M/LT+Y3uhfjv1rtrbkqnc8HX2erMVgeyMjjokdWir93f3koNpUOsxF5M/NPC4eifT7r3VpH8tD+X115/L/wDgJ078MafGYHcqYTY9UvdWQloIKzFdmdl78pnru2cxkaesgvlMHl8tXz0FFDVrI0eDp6WlfUkQHv3Xutb/APlU5jK/yTv5zPyM/k69h5Kuo/if8yMnJ8g/glnc5VVDY6g3DlKatOK2lBX1jpFJkM/trb1XtLIVEreat3Ds3HiGIfxEFvde62n/AJgfBP4k/PbriXqz5adG7J7j2wiVRwtVnqGSj3ds6srIxHNldib6w82O3jsnKyKih58ZW0zTIuiXXGSh917rV13B/KB/m4/yas5lu0v5J3yZyvyT+OEeRqtwbl+AHyRraDKSvTSSNV5GLaH3NZtvZ+4a2cIXlrcJU7J3PMscNOrZRyQ/uvdHr+Bv/CmL4l/IHef+y5fNjaW5v5cXzCwlfDtvcnWHyGWt25sCv3OBHG1Bhuw9yYzbjbUyVXKwZMbuqjwswaaOGmnr3Os+691snwTwVUENVSzRVNNUxRz09RBIk0E8EyCSKaGWMtHLFLGwZWUkMDcce/de6y+/de6RvYuwNpdsdfb66s3/AIal3HsTsrZu59gb129XIJKLPbS3lhK7bu5MNWIbh6XKYbIzQSD8o59+6918+3+Tj0d8n9t/NrvT+QL2Nj5M38VPij826H5s9vboyL1Ec+5ut+nI6LKdS7FqKGWKOhqtn99dpJ1ZvA0Kinb7PHZEtHLHUToPde6+iJ7917r3v3Xuve/de697917r3v3Xuve/de697917r3v3Xuve/de697917r3v3Xuv/9bf49+691737r3Xvfuvde9+691737r3Xvfuvde9+691737r3Xvfuvde9+691pkfzNdq7a/mZ/8AClH+X78BN2YLH9g9CfDLp7cXyB+QGz81SQ5XbkuY3RQN2BVbe3ThJ0lo8rgN00e2+ucdVQ1AMc9Pm5I2QoxEnuvdXMYb/hPD/JbwW+5uxaL+X/1BPuCeRZXx+ZyvY+49iKyuzgQ9W7h3vlOsqePU5ukeIVCLAiwAHuvdW5bF2DsXq/aeD2F1rszavX2x9s0MGL25s7ZO38Ttba+BxtMix09Bh8Bg6ShxeNo4Y1AWOGJEAHA9+690rffuvde9+691737r3Xvfuvde9+691737r3Xvfuvde9+691737r3Xvfuvde9+691737r3Xvfuvde9+6918/D/AIRkS0e3vlh/NM2P2KAe90xvVssz1RCZH7TanZHb2I7cBjlvUWbeObwJm59LhNVyRb3XuvoH+/de697917r5+H/CZGWj3N/Pr/m+b36tAXoitxnyblwSUlnxwo90/Mva+X6oCSRaachdnYzKCGw5TUVsL+/de6+gf7917r3v3Xuve/de697917r3v3Xuve/de697917r3v3Xuve/de697917r3v3Xuve/de697917rR7/nt4rdv8tv8Anhfy8P50VTtTOZ741tR4HpnvPPYOlyGUqNm5ePG9idd7wlqoafUlPUbh6M7KefBUl0TI1+BrImZS4Le691tA57+ax/Lj2/0NU/JWf5ofHjI9Rw7fk3BSZnA9n7VzeczWmlkqYNt4DZOOyU+9MzvytkjNNBt+CgbNSV3+TCm84MY917owvx77wyHcvx168+QG/wDrDd3xybe+yB2Blut+3arC0O7+vNvVC1WQx8m+2oaybH7frpdtRw5Gqpal4arFrOaetjp6qGeGP3XutSv+Vdjsh/Or/nVfJX+b9vigrMh8UPhdXP8AHj4NYvMUsoxeT3HQUmQixm66WkqleNa3C7az9du6uglXz0Wb3njTFIfsFC+691upe/de61tf+FMnwD3X8m/hrg/lr0AuQxHy8/l47hb5E9Tbk21H4911mytu1OM3B2RgMVPEj1EuUwUG26PdOLVVllNfgPtoE1Vr3917qy/+U98/NqfzLfgn0j8qME2PpN1bhwg2r3JtfHuNGyu69oRU+N7C28IC8k1LjqjIsmUxaynyyYXJUcrWMlvfuvdWN+/de6r8+eP8rr4P/wAyXZn91Plf0ft3emXoqCWg2p2lh0G1+4tiK5lliO0uxsSkWepaGCrlM7Yyqarw1TMAamjnA0+/de61sJ/gt/PQ/kUTzbi/lxdt1/8AMv8AgjgpGq6z4e9vw1GS7b2JtqGQmSg2BhaSrgyMlRR0srCCTYtXTisrZDPUbVnSPn3XurWf5c//AAov+B/zxzNH1BvPK5P4efLGGvO3c18dPkPUwbaq6zd9PUGhrtv7A37kKfD7f3dkosiPt48ZVxYfccsysBiwqFvfuvdPfys/4UIfCn4VfzBJvgV8jcT2ZsCei6voN/ZHvepwUNf1rS5rM7ZyW8MBs6nxmOnqt4ZeTPYuhjoaWuo6OeJs9VR0DRqFlqI/de6MH/LC6k3/AJUfIf8AmAd99f1nWXyA/mB742zvw9cZqCKn3N098aOsdunZHxa6k3XDHcU++KDYTT7h3IhCSxZ/cdVSypGaRY0917q1v37r3Xvfuvde9+691737r3Xvfuvde9+691737r3Xvfuvde9+691737r3Xvfuvdf/19/j37r3Xvfuvde9+691737r3Xvfuvde9+691737r3QY9W92dNd44jIbg6U7b6x7gwGIyRw2VzfVu/dq9gYjGZcUtPWnFZDJbTyuWoqLJCiqopvBI6y+KRH06WBPuvdCd7917rHLLFBFJPPJHDDDG8s00rrHFFFGpeSSSRyESNEBJJIAAuffuvdad/8Awm8jk+Zvz7/nG/zbsqJ8liO2u9Jfjt0Xn5o246xwmRp911GFaaRmMj43rnB9bQ2XSo8J4sVVfde63FPfuvde9+691737r3Xvfuvde9+691737r3Xvfuvde9+691737r3Xvfuvde9+691737r3Xvfuvde9+691737r3XvfuvdfP0/nD/Cn5c/yav5k0/86r+X7tKfdPTW+c/kt098bLxuJmrsLtHLbulgbtPb+9cXgoIqum6u7Nq0ORTIRoP4Tk3Lu9o4z7917q3D42f8K8v5TnauwcTl++N19m/F3sMY9m3Hs3dPVXYHZOHjysJkWSLbO6eodub3GUx1ZoDwSVtLjpVEgWVFKlj7r3VZf80H/hUvRfKbaOQ+FH8oLrntvsPtLvilfrybuWu2ZkcLmoKHchqcblMT1FsMvNuqq3BX4xtBymUp6CLHxTvKIWaPyL7r3V33/CdX+UVkP5WHxGys3bFPQyfKH5EZDC7z7iNKKSpj2ZicRRVEOyur6LIRRmWoG2osnV1Fe4laKXI1kgVQsSe/de62Effuvde9+691737r3Xvfuvde9+691737r3Xvfuvde9+691737r3Xvfuvde9+691737r3XvfuvdJXe+xdkdmbTzuwuyNnbV7B2NuihbGbm2Xvfb2I3XtPcWNd0kfH53bmeo6/D5eheSJWMVRDJGWUG1wPfuvdES6f/lFfyxeg+x6Ht3qH4L/GzZPZOIyEeW2/u+g6zwVZlNq5aCVpqfLbN/i0GQptm5Smdj4qjFR0c0anSrBePfuvdVR/8Ke/nDvXp74pbE+A3xz++zfy0/mTbtpuhNl7b29L/v4qbq7M5PFbf39PTBHP21T2BW5+h2lTCYIk1Nl8hLE6vRMV917q4b+Wl8Htl/y6fhN0P8S9m/ZVk/XG0oJt/bno4PF/fjtXcUjZ3sneUjyRpVyU+Y3XXVAoUnLyUmLipaXUUgQD3Xuj2+/de6xyxRTxSQTxxzQzRvFNDKiyRSxSKUkjkjcFHjdCQQQQQbH37r3WlF8K5pf5EP8APj7U/l/ZyWTAfAz+Z3VUnZ3xSqKpjBtnYXbmSrq2m21smglcvS0MkGdev2K9Mhesq4X2vU1DKjD37r3W7D7917r3v3Xuve/de6qh/mMfyWPgB/M8w1XN8huoaTEdsjH/AGWB+Q3V5otl91YPwwCCgSs3LBQVVBvjFY+MaYMduOjy9BTqzGCKKRvIPde61uN2fFz+c9/JM3htPsuh6366/ndfCrptml2M/YOwKPcvy5+Ou0qSoFd4uv8AP5PGb37f65gxcUI8cmBqd4bZoqeB53xuMLAp7r3Wwb/Ld/nv/wAvr+ZjDjtr9W9lHq3v+WMxZT42d1tj9mdorkIE/wAth2drrZ9u9l0kMkcrA4Ssqq6Gnj8lZSUZOge691cx7917r3v3Xuve/de697917r3v3Xuve/de697917r3v3Xuve/de697917r3v3Xuv/Q3+Pfuvde9+691737r3Xvfuvde9+691737r3RSvl/8ld/fGLZG2d29ffE35A/LzJ5/dS7drdk/Hej2TW7n2zQnEZLJndObj3zu3aGPTArUUCUhMM8s33FTGNGnUw917rRu/4SrfNrtv4xfDz5EbS6+/l9fL35eYzP/JWbcVbvb4743rCt2xtmuPV2wMYdrZuTfPYW0MgmeWnoEqyIYJYft6mM69WpR7r3X0KtsZep3Btvb2ercJlNs1mbweJy9XtvOLTpmtv1OSoKesnwmXSknqaRcpiZZjBUCKSSMSxtpZhYn3Xuqwf54PykPw8/lU/NPuahya4rdT9P5frHYFUkvjrod/dz1NJ1RtfIYtFIeav29X7vGUAAIWKhd3GhG9+690Dv/CdH4u/7Kn/J/wDiFtivoGod2dr7NqfkZvQyw/b1NRlO8q2Te+3FradgJIKzE9c1uDx0iv6w1F6gpuo917q7z37r3Xvfuvde9+691737r3Xvfuvde9+691737r3Xvfuvde9+691737r3Xvfuvde9+691737r3Xvfuvde9+691737r3QY909l9Y9NdRdmdr905zC7b6k682Nubd3ZGb3FGlRhaDZmExFVXZ96+jeKf+IxS46J4xSrHLJVu4hRHd1Q+6918rnuT+Xr2D/M7+OX8z3+d/1l07tr429CbA34mU+NfQOwNjYHaeO3t1vs3c2Oxvcu8qyjwVHS45pev9jFsrmclTrJTZXcSZeGJ4o8eKf37r3W+3/Iw6U/l8VvwZ+N3y3+Hnxg6a6c3B3d1NgKzfud2lgzld3UPYODirNo9pbSffu5avPb1mxuB7AxWWolikrtMsUYZk9Vh7r3V3Pv3Xuve/de697917r3v3Xuve/de697917r3v3Xuve/de697917r3v3Xuve/de697917r3v3Xuve/de697917pszWaxG3MPltw7gydDhcDgcZX5rN5nKVUNDjMTiMXSy12SyeRrah46ejoaCjgeWaWRlSONCzEAE+/de60xv5QuFy/85b+cX8pf50XY+Mrqr41/F3JVPxv+B2EztJOlE1bQ46uo6Xc9LRVgkSCu29sjcNXuHIU0oY02499xSU8gagAT3Xut0z37r3Ven8yT50bu/l79CZT5D4v4mdyfKHYmz8fnM/2pVdQ53r3GP1PtHAxUFTV7v3Zj92bioN0ZDb4o6ipmmnwuLyqY6ChmnrzSU4Ex917pI/y//wCZA/8AMJ/l+4v50dVfHfe0eR3A3atNtj4/0m+Nh1W9NzZXrbeG4NpUmDxe9N313XmwKLJbrkwayQvk6zHUNI8+iap0IZm917rVa/mbfKPK/wA9Gs+SHwe2h8Ju5vi3/MG/lc9Z77+aHXuY3jv7aWZ3yM51dvjqbavYfSm2qbr6myUNTP2LtHflDncHksbmJ4K7M4LEmnMkEq1B917rZ1/kmfzGsV/M6/l+dRd/1ldQt2/t6m/0U/InDUnghbFdz7KoMfDuDJrQ04WOgxm/cZWUW46GFNSU9Jlkp9Rkhkt7r3VtPv3Xuve/de697917r3v3XuqQP5kf/Cf7+X9/MfmyW/8AceyKnoL5LSTDJ4v5LdERUO0t81GfpyJqHI7/AMLDCm2eyvHVwwtJU5CBM4sMKxUuTpB6vfuvdUzj5A/z9v5Cv+QfKLaFT/Nv/l57Z0xJ3vs6bLy999X7SpbxrX7uydRDnt64eLG0t56obog3Jh+IqWHclIDZfde62H/5ev8AOA+BX8zbbkNd8Y+58bUdgQY0ZHcvRG/RS7M7v2miRiSsav2PWVtQdwYzH6lE2VwNTl8OjsqGr1nSPde6s49+691737r3Xvfuvde9+691737r3Xvfuvde9+691737r3Xvfuvdf//R3+Pfuvde9+691737r3Xvfuvde9+691737r3XvfuvdaYX/CJf/sgX5Xf+Lf1H/vmOrvfuvdbnvv3XutP3/hU9nMv8kt9fysf5UOzMjLDmfmJ8scJu3fzY5r1+39j7XrsX1xicxkY9LscJfsvOZU+llDbZZyLxqD7r3W3bgsHids4TDbbwGPpsTgtvYrH4PC4ujjENHjcTiaSGgxuPpIl9MVNR0dOkcajhVUD37r3Tr7917r3v3Xuve/de697917r3v3Xuve/de697917r3v3Xuve/de697917r3v3Xuve/de697917r3v3Xuve/de697917rTM/nqd79n/wA0j5w9Kf8ACf74e7kqaLDV+d2/2j/MB7NwmqsxWx9kbefG7pptoZeWFlpp4NjYeWmzlbRyssOQ3NW4DGiaKpSoj9+691tXda/Fjovqb4xbd+Hey9iY2g+Pm2uppOlKXYkq+akyGwqzAVG3M1RZucLHNlcjuajramXKVkt6ivq6qaeVmlldj7r3Wrz/AMJkN5bm+Iff/wDMq/kpdrZarqNx/FHuzO9v9IS5YhK/cnUe5MhjNtZ7M0dOwi+0wuQoqjZ+46aJEsz7tnkIX8+691uF+/de697917r3v3Xuve/de697917r3v3Xuve/de697917r3v3Xuve/de697917r3v3Xuve/de697917r3v3XutXb/AIVAfNTfewfjb1f/AC3vjV93m/lj/Mt3lQdK4LbuDqCmboOn8nmsXt/eTO8LN9gOy81mKLa8ZqFWCoxdXmHV1ajYj3Xurs/5dnwr2J/L1+GfQ/xJ2D9pV0vVezKSl3XuSmp/t33x2PmZJM52NvioDqtRfc+8MhV1EEcpZqWjaGmB8cKAe690db37r3RAP5sX/brL+ZZ/4oB8yP8A4HXsb37r3VYH/CT/AP7clfHL/wASB8iP/f3739+690QD+XX/ANxgX83P/wAVAyX/ALu/gN7917pL7Av/ACDv+FBeW6xnH92P5dv84KeLK7GZr0ez+ru/Zs9JHR4mmLeKgx0O1Oyt0vi3jjENJQ7X3tjZJnb+H+n3Xut2X37r3Xvfuvde9+691737r3XvfuvdeIvweQeCD+ffuvda8H8wr/hNv8IfmPuObvLomXN/A/5eY7JDc23e+fjjCdtYup3hBL91SZ/ePW+Fr9u4qryq1rPO+VwVVt7PTVTiWeun0iM+691Wlj/5lH867+R7XUeyv5sPQ+R+e3wxxlXT4nD/ADk6F0ZPfm28L546WiqN+ZKaiw2PyuQSm8cS0m86TbmSrqySRkz+RCXb3Xutmr4Q/wAyD4X/AMxTYf8Afz4ld57T7LSio6eq3Rsrzvguz9hvOyxeDfHXOaWi3Xt9PuyYYqt6ZsdWOjGlqJ47Ofde6PF7917r3v3Xuve/de697917r3v3Xuve/de697917r//0t/j37r3Xvfuvde9+691737r3Xvfuvde9+691737r3Wjz/JV6o/mxfyUdw/Jj4X7k/lf9nfKvrfsDur+/XWvevU3bvT20Nn170mLpdnfxuvzG/M/RYKk2zu3a2Cx+Qijr63GZbETxyU1TRPLPan917rdm2nkM/ltq7ayu69vR7R3Rk9v4bIbk2nFmabccW2M/W46mqcxt6LcNHT0dJnY8LkZJKZayKKKOqEXkVFVgo917rUI6KB+f3/Csz5E9vSCPL9Xfys/jwvUGz612FXSQdnZLG1ezcljJaYM9PBX0u8+1ewHjk5dHwcTELIF8fuvdbi/v3Xuve/de697917r3v3Xuve/de697917r3v3Xuve/de697917r3v3Xuve/de697917r3v3XutcH/AIUtT/K/o/4F9i/N34s/Nvvf44Zr4+x9YYzP9U7BGyI9hdk4rsbuHbPV0+Wq8pNtM9hYLemMn7Kp50qYs1JjHpMYsQx6VL/eL7r3Qa/EX4z/AMyj+ZL/AC3vib2x2N/NE71+KOS3T8auuK3YmN+OdLgcnu3dWXG2qcU/cvyM7j3JTU/YnYe6uwqhVyNVgMPVbex2KpZEpXqK+sFRkJvde6z/APCaP+YB8tPlHtz5z/E75p75/wBLvdnwA7wwXWtR3BPFQrlN27f3Pk+0dqxYjMV1BQ47+8dZtvdHS+WeLK1EQrayir4FqGeSIyP7r3VkX85r+ZptD+Vf8IewO/qt8Xle3txLL138dNi17rJ/e7t7P0FUcPV1tCrpPU7U2PSQy5rMWaISUdH9qsqVFVT6vde6JV/wnO/ll7v+HXxv3T8r/lAmUz3zv+eGS/0zd5bj3ejT7z2ntrc9dVbr211/lamqRayk3JkqvMS5/c6FIJDmq5aOdH/hcD+/de62NPfuvdaZ/wDOrU/yyv52P8tP+bxh1OG6i7qyI+J3y4r4bw4pMcaOTba7o3JIQorK5+qNzvX0UJfR5OvYSdFtTe691bh/O0/mG/Nf+Wf8fqr5V9AfHPobvHoLZsO1aPtrcW++0t34Dfeyc1vfd8Oydt19FsDD7YpsTuHZNVns/haZqyn3C2RWrrmRselMjVi+690aH4//ACZ+Unyk/lqfHn5V9J9b9D13yS7z6M6t7Ri6+7L31v7rvpejy+8cRjMpuWkTdG29l9r70paPHQVMz4+neinaokWOGergVmqU917og38jj+bz8jf5nPaP8wLrD5F9GdXdGbi+Fe8uo+vzguuc3uLclRUbq3Vme+tub/o89ncxk6vG5KHC5rp6JaGShggQpPLqaYeNh7r3Wwx7917r3v3Xuve/de697917r3v3Xuve/de697917r3v3Xuve/de697917pqzWdwm2sXWZvceYxWAwuPhaor8vmshSYrF0MCC7z1lfXTQUlNCgFyzuqj+vv3Xuiz7e+d/wAId3z7rpNnfMT4ubxrti47K5femN2h371VunKbVxmDoZsnma3P4zA7ryGQxVPjMfTvNOZo08caljYD37r3WrN/Jf27nv5wH82n5Zfzvu1cRXv0V0ZmMh8bPgXt/P0sqQ4+noMZU48bkpKKrDCkr9tdebglyFdFaSFdy76qpIXWShGn3Xut0b37r3XvfuvdAh8m+lcf8k/jb8g/jrl8lJhsV350h2x0rk8xDG00uKx/aew8/satyUUKSwPLJQ02daVVDoWK2DD6+/de61T/AOTNVfzj/wCWF01lP5be/f5Vm4u8KfYvZW/cx038g9u9/wDVvXnRsu3d5ZaXcFfLvPeWUp9wVqbdXO1NVk4KiloqvcRpa0UTYYVVOsb+690yfHH4L/zo/it/PX+Uf8w2t+LXTXyL6/8AkbslOqt57pxHe/X/AEvtcbe3Zh+j915LLdYYTKZzfXYtPQ9Ybu6qpsBTf3gwkVdn6GklqZI6aSrSoh917q4/+fj/AC20/mWfy9+xuvdoYpan5C9PPJ3f8bshTKseWm7F2fjqx67YtLVp4p1g7O2zLV4hIzLHTplJaGrlv9mlvde6b/5AH8yN/wCZJ/L42BvDfGVao+R3RssXRnyRx9c5TN1W+to0FPHh9/5Clm8dUB2Ztf7bJzymKOEZk5GliB+0a3uvdXd+/de697917r3v3Xuve/de697917r3v3XuomQx9BlqCtxeUoqTJYzJUlTj8jjshTQ1lBkKCshenrKKto6hJKeqpKqnkaOSORWR0YqwIJHv3XutZX5v/wDCZP44dnb8/wBmc/l0dkbq/lp/MDB1dTntvbq6Nq8tgeo8vnZFZ3Wu2NtrIYav67OR0rTyT7WqaHHpDJK8+Jr3cqfde6KDtD+dj/NA/lH7nwXS389b4rZvsvqCbJU+3NpfzAvjficflsFnla0FFVbqoMXTYPY+466pVHlen0bP3NFSQtKcPXSsGf3Xutpn4qfMv4ufN7rSl7c+Kfduxe69jT/bx1tdtLKasxtuuqomnhw29dp5GKh3ZsbPtCpf7DMUVFWaLP49JBPuvdGa9+691737r3Xvfuvde9+691737r3X/9Pf49+691737r3Xvfuvde9+691737r3Xvfuvde9+691737r3QV96dubZ6A6T7g723rIYtn9L9X797W3S6yJE/8Ad7r3a2V3ZmFjkkBRZXoMTIEuD6iOD9PfuvdayH/CSDqLc9Z8Ovkz88+y4Fm7Q/mA/KzsLsXJZ8pIZM9tTYeZzeJSraednnlt29uPe31LDkEsWLW917rbD9+691737r3Xvfuvde9+691737r3Xvfuvde9+691737r3Xvfuvde9+691737r3Xvfuvde9+691QD/wAKjv8AtxR85v8Ay2b/AODD+Pvv3Xujf/yUv+3R/wDLl/8AFQOj/wD3icX7917rXy/4TAZXGYL5zf8ACjfN5vI0OHw2H+WGyMrl8tlKuCgxmLxmP7f+eNXX5HI11VJFS0VDRUsLyzSyMsccalmIAJ9+690h/jHisn/wo5/nJ7h+aG9cdXZD+V5/LS3GNm/G7bOYpJ0253N21R11Jmsfmq3G10ccFf8A3lymPpd2Z2J4xJBg6XbmIrYGWoldvde63hPfuvde9+691T5/Pk+FH+z5/wArj5O9PYfEnLdk7R2qe8Om4oIPuck3ZvUEdRurHYjDxaWH8T3xt2DJ7bQ24TMtyP1D3Xutdbvv5sf7PR/wjR7S7BzWX/i3ZfVGE+NPxz7flkm+4rm3x078ufjbg8flsrMWLS5XePXlRgs9UsQt58qwAsLn3Xutm3+Sl/26P/ly/wDioHR//vE4v37r3VAP/CWz/svr/hRL/wCLf9ef+/n+dvv3Xutz337r3Xvfuvde9+691737r3Xvfuvde9+691737r3Xvfuvde9+690Tn59/Njqf+Xl8Tu3Pln3LJVT7U6xwkUuP29jDH/G977yzNXDh9mbHwSy2iGT3PuGsgpxLJaGkhaSomKwwyMvuvdfH3/mP/wA175jfzPu1cxvv5Ddk5pdiLl5Kvr7obbmWyND1B1njImqI8ZS4TayTR0OV3BT0lSy1Ocro5spWM7apUhEUEXuvdVq+/de63Iv+ExH8+HP/ABU7C6y/lxfI6oxdR8Xu0N6T7d6Z3pHi6DH5bpftHsTcM1ZS47PV9BT08ue2Bv3eOXaOeorPNVYiurFlMwoBItP7r3X01vfuvde9+691737r3Xvfuvde9+690Fnd/dPWnxz6j7C7z7i3RQbL6x6u2vkt37z3NkpFjpcZh8ZFrkYBmXzVdVMyQU8KnXPUSpGt2YD37r3Xy9fj9vn+ZV85f5jfzz7S/kFbR7b+NPT3yf31DmOz66lz+2Nr7J2+I3qtxPuDcu9s9i0xeyczuLddfl8vQ47ENJlsfFnJaSnBgfT7917q0HOfyuP+FdnxzxNV2/sf+YbuDvfcOPo59wVXWWD+YXZ3Z+WkehieqkxNLsb5EbKwfWOTrJlh0R0dHPKkzsEj1MwHv3XurNP5KX/CizfXyZ7wk/l8fzJtg0fR/wA08ZlchtbbO4TgqjY2L7I3RjPJNUbL3JszIFV2f2K9OpamipbUOTRVMEcbMFPuvdbdHv3Xuve/de697917r3v3Xuve/de697917pObv2dtHsHbGc2Tv3a23N77M3Pjp8RuTaO78HjNy7Y3DiapdNVjM5gMzS1uKy2OqV4khqIpI3H1U+/de6+ZZ/P8wfw1/lBfOjY9d/KM7I7n+LnzFjo03T3vs7prsCaHpLrzbe4qVcpt7bz4auWvydLuDeIlSuqtrTVVXtuLDPTscfTpPAkvuvdaynffzM+Wfyk3JVbt+RPyQ7p7jzdVlZcyj797E3Pncbi6+SpNWrbewFTkTgNsUlNPY09NjqalpqYALFGiqAPde6P58Af58X8yH+X3vnb+V2T3/vntrqiircem5ugu7d1Z7sHrfP4ClLx1GJwS7hrMnlut656aZjDXYGaiZZ1iaojqoUNO/uvdfV4/lw/zBOkf5mXxV2L8pOjquWnxefNRgd77JyU8Em5esexsNFTHc+wtzRw2UV2Narinpp1VYq/HVNPVxftTp7917o9vv3Xuve/de6//1N/j37r3Xvfuvde9+691737r3Xvfuvde9+691737r3Xvfuvda2f/AAqz+TFT0L/KP7G6829UVS77+WnY3Xfxy2vTYwSS5WfHZbKS7/31HT0cKvNU0mX2VsKsw0wCkasvGg9bpf3Xurgf5d/xmpfht8GPil8YoaOCjr+nOjtg7W3UtM0bQ1fYBwlPlOyMsjRARt/G9/5HJVhIuC055P19+690cv37r3Xvfuvde9+691737r3Xvfuvde9+691737r3Xvfuvde9+691737r3Xvfuvde9+691737r3VZX8yf+V9sH+aD17TdO9z/ACV+WPVfTM0OP/vd1N8f939RbU2b2PX4XcVDunb+W35/fvpPsvcOVqtv5rGU01LBBkKWgWWnileneaNJF917pO/F3+VbR/EL4tbx+JXT/wA8/n+uwcvj9k4jrTdO7d/fHrdPYnxzw+z89U5muw/RWar/AIzjB4TD72o6gYzJ0ubxmfp6XHxIMSmMn1VDe691plfzNf5e20/gz8mNq/yzv5WHyx+dvZvzW/mkVyUHy72v2Z3N1luHrrJ9Obird0VX8V7og2N0XsvcM+fzdTls9m6zJSZEzYvatPlpKmGSny6eT3Xut8P4AfCbqj+Xj8S+n/ib09TK+3es9uxw53c0tJFS5fsLfuUb+I747D3AEeVjl927hnmqPEZJEoqYw0cJFPTwovuvdHJ9+691737r3XvfuvdfP26p+GuA2F/MT/nN/wDCezeedHXXRX8x3r+P5MfDfLzUZqsJtXfu1crS94dfU238MWpnyOI2wlJWUOTVWSapj658UcisVl9+691cl/LT+OX/AAoF+MPQ+xPgl2FX/A7afUHTeNm2Nsr5bnNdids9n4zrOHJTjFY/ZXUiU20dubr3NtvGVRgwc+5WwuPo6SCnFbS5AwvBUe690i/5Tv8AJw/mXfyyvmp8qe3KH5C/FLsH44/LbuKXc3auC3hH2xvfvbO7L232Nv7cewd0QbmpNndZbcwncL7c7IywypJyGCkr61/2Z1jgmi917rar9+691737r3Xvfuvde9+691737r3Xvfuvde9+691737r3XvfuvdaOX/C3zsnduI+OPwU6koKar/uRvzuftrf+5q+IlaOLcfV2ytr4HZ+Nq7MNclfQdsZmaJSCP8jY8FR7917r5ynv3Xuve/de6yRSywSxzwSSQzQyJLDNE7RyxSxsHjkjkQh0kRwCCCCCLj37r3X3YPhl2Jujt74ffFHtne9FUYzenaHxr6L7E3fjasBarH7o3r1ftbcufoqlQWC1FJlsnLG4ubMp9+690ZT37r3Xvfuvde9+691737r3WlR/wtb+SO6+vfiN8UfjXt/KTY3D/Iztnfm7t6wU+lWze3+hsPs6ajw1TJbyfYf3n7Px9a6AgPNRRE30+/de62Z/5aXwo66/l+/C3or409fYKmxU+0tj4Gs7CyiwUseT3h2nlsVR1m/915uopaalFXXZPcLzCMsv7NKkUQOmMe/de6Ph7917rQ5/4WQ/FnAdRS/D7+Zx1FC2xe7cV3Pi+nN27swUdLR1GazWO27mu0eoNzVrR0yzz7g2nJ1zlYI53kYSU0kUbLaJffuvdbo3xN7fl+QnxY+NHfs6Rxz94fH/AKa7fmSFFjhSXsvrrbm9JEijQBI41fNEKoAAHA9+690YD37r3Xvfuvde9+691737r3Xvfuvde9+6918J75md97k+Unyz+SHyJ3bVZWqzfcfdPYm/XTMy1Mlfi8bndz5GpwG3mWrPnpqTbGANNjqanIApqaljiUKqAD3Xui0e/de697917reU/wCERnfe5Md8iPmd8XparK1O0N4dL7X77oaJ5amTCYXcnXG+MP15laqnhJNJR5Xc+L7UokmYaZKmHERA6lgGn3Xuvoye/de697917r//1d/j37r3Xvfuvde9+691737r3Xvfuvde9+691737r3Xvfuvdac/83i3zw/4UJfyi/wCXlS681178boa/5e9246K0mIWeGvm7AjwO6ornUtVtjpHGUUeocR7uCIwadtPuvdbjHv3Xuve/de697917r3v3Xuve/de697917r3v3Xuve/de697917r3v3Xuve/de697917r3v3Xuve/de697917omX8wT5udU/y7viT2/8ALHt6dZcD1tt+R9vbXirIqTLdh7/ypOP2P15gWkWU/wAU3Vn5YoGlEci0VJ5quVfBTysvuvdUD/8ACb34R9rb5r+5P52vzegbOfLb57V2TzvVkOXo5VbrboDL1FNJjslt6irmllwNN2BQ42hpcJAhf7DZOKxsdPL4q+pi9+691ti+/de697917r3v3Xuve/de61A/+FRfXm7vjXvf+Xj/ADmencVPUb9+E3fW19jdppjwI5tw9R7qzrbj2/i85VlR9vto56nzG3JgGBc73K/nUvuvdbY3WvYe0u3eudgdr7Ay0Oe2J2dsra3YWy85T/5jM7T3ng6Hce3crDyf2shh8lDKvJ4f37r3S29+691737r3Xvfuvde9+691737r3Xvfuvde9+691737r3Xvfuvde9+691QT/wAKPv5bO7/5kv8ALq3FtXqPFvmu/Og92Ufe3UO34ZYIKje1XgsNmMHvLr2CaeJwa3dGzs3VPj4tcKT5qioUkkSMuw917r5BeUxeSwmSyOFzWOrsRmMRXVeLy2JylJUUGSxeSoKiSkrsdkaGrjiqqKuoqqJ45oZEWSORSrAEEe/de6g+/de6sq/lQ/y4O1f5n3zG62+POxMPl12IuaxO4++ewaSNosZ1n1BQ5GF905uqyclPU0lPuDK0MclDg6ZldqzKTRLpEKTyxe6919rnBYXF7awmH25hKOHH4XAYrH4XEUFOoSChxeKpIaGgo4EFgkNNSQIigfRVHv3XunX37r3Xvfuvde9+691737r3Wnt/wso+H+8u8vgp018lNkYiozkvxD7K3FW74paKlqqqsxvWHcGNwGD3BuXRTQShMfhN0bQwX3buUSKnmaQnSht7r3V0X8mT+ZN1X/Mr+EfUvZ+19y4qXtzaGz9tbI+QGwv4rDU7j2d2bgMNRY7OVldRPHS138C3VUwHI42qaERTU9QFDM8b+/de6tn9+6918/D/AIVW/L/GfPP5FfEj+UR8Sp6btnsvC90Um4uxf7q1jZvHY/t7c+Lm2LsPZDfwqmq4mr9qbd3NmK/NSLKxx8NSiyIpSS3uvdb1/wAeepqHoPoHo7orFzx1OM6W6f6z6mx1TErLFUUPXOy8Js+kniV1V1jlp8MrKCAQDyPfuvdDB7917r3v3Xuve/de697917r3v3Xuve/de6+M1/Pi+AO+f5ff8yHv/ZOV2/W0XVHbW+d1d29BbmTHmlwGf637Bz1ZuFcFiaiN5qZ67rfLZObA10JZZ1aijqGiSGqpy/uvdU2e/de697917r6SH/CM/wCAO+em+iO9fnV2bt+t29L8mjtjYHSNFl8eaLJVvU2xa3KZXcW+qZpX+5OA37u+vp4KIPFGJotviqjMkFRC5917rdo9+691737r3X//1t/j37r3Xvfuvde9+691737r3Xvfuvde9+691737r3XvfuvdadH8hpv9ni/nHfzmP5pddI+X2li970nxN6CzzXmx2T2LjsvS0QrMZ6ngo6yj636X2fNJ47kjPS+o+Ry/uvdbi/v3Xuve/de697917r3v3Xuve/de697917r3v3Xuve/de697917r3v3Xuve/de697917r3v3Xuve/de697917rR6+SOTyP8Awo9/nK4H4fbNr63J/wArb+WbuL+93yG3Phqqc7a7p7cpq2rw1fh6TJ0TpS16bryuMqtq4KWOQvFt+h3Fl6KoYVcUZ917rd4xmMx2FxuPw+HoKLFYjE0VJjMXi8bSwUOOxuOoII6WhoKCipkipqOio6aJY4oo1VI0UKoAAHv3Xupvv3Xuve/de697917r3v3XuiifPn4p7d+cPwx+SXxQ3MKSOl7t6q3LtPDZCuQyU2397JTrmOut2Oio5dtob+xeNyiDSbvSAWPv3XuqQ/8AhKd8rNxdu/y8s78T+1DVY/vT+Xx2ruX4+bz25l3vn8ZsmpyeWzXXX8VjDstOuCq4M3taCMW0RbYAN/1H3Xutnf37r3Xvfuvde9+691737r3Xvfuvde9+691737r3Xvfuvde9+691737r3XvfuvdUE/zJv+E4P8ur+ZLu/Kdubq27uzoPvzNPFNuDt7omsw2Cq97VEEEsEM/YWzc5h83s7dFaQ6eXIJS0WanSGON64xoqD3XuqaOtv+EQfxxxG7amv7b+dfc+/NkfdiWg2zsDqXZXV244qNSp+0yW8M9ujtigr5HsQ0sOGo+DwqkX9+691tj/AAn+AnxO/l5dTx9NfEzqPCdY7Unqhk9w5CKWrzO8t75vx+Js7vjeeYmrNw7nyYiHjiNRO0NJCBDTxwwqsa+690cb37r3Xvfuvde9+691737r3XvfuvdJ3d20dsb+2tuLZG9MFjNz7R3bhsjt7cu3czSxV2KzeEy9LLRZLGZCkmDRz0tZSzMjqfweLH37r3WjZ8qv+EvnzM+KPfeW+Uf8jz5R5LqaqydZUVn+hrMb/wAt1xuPbkVeMh95gNt73hirNqb22aFnCw4zcUVOsIlKmSZVUj3XuqqP5lHcf/CrL4s/H/F5f5+d+dg9SdBb43vj+iqfd+xt6fFTGVuZzG69ubnzSUWXz3xhi/0oxYyt27tjJPLVZB4mZYfHcu6I3uvdbZP8lb/hPF0n/LCr5PkD2Zvik+Sfy/3NQVyzdptQzw7O2LR50vJkoOtqXKS1OVra3MwyXq83WstZVCRgscKGx917rZD9+691737r3Xvfuvde9+691737r3Xvfuvde9+690RL+YJ/Lh+Kv8zLpGr6O+UmxTn8XTyz5LZO98DURYbsbrHcskHhj3NsLc5pqtsbXBQqz008VTjq+JfFV088Xo9+691pEd9/8IjPkRjtyVUvxe+Z3S+8NoVOVleioe+9r74643JhcJJUkw09VlevMP2pi9z5WjpDZpkosRDUyLcRQK1l917o/nwB/wCEZ/RHTe+dv9m/OrvU/JqXb1bj8vRdI7A2xW7F6mrclRF5Wpt9biyuUr9379wBqfE4ooKfb8UwjMdUKiCR4T7r3W6ngsFhdr4XE7b23icbgNvYDG0WHweDw9FT43E4jE42njpMfjcbj6SOKloqGipYljiijVUjRQAAB7917p19+691737r3X//19/j37r3Xvfuvde9+691737r3Xvfuvde9+691qs/zrP+FOfTv8tvd+a+NXxx2bg/kb8scTA8W8Y8vl6qj6j6Trqmi8+Pot8VWFkTNbv3fqmillwGPqKAwU5Jqa+mlMcUnuvdaeG/f+FX386HfGZzFZTd5da7F23msTlsRPsPZPRXW0G36SLLUktGavG57cmH3N2VQ5GgSYvTTLn7xyAMdRA9+691bN/wlX/nZ/E74vbExP8ALd702q/Tub7O7d3BvfaPyGqc5T1ext99j77TA7eoNq7+pJqChn2DX/wbbuLxuLrzPW0FW8ASdqNzH5vde6+icCCAQQQRcEcgg/Qg/kH37r3Xfv3Xuve/de697917r3v3Xuve/de697917r3v3Xuve/de697917r3v3Xuve/de697917oG+3fkX8fPj9jEzXfPe3TfSWHkGqPLdu9n7J62xkij6lK/eWcwtKwH+D+/de616f59X84jb3VHxP2Z8eP5fnZ20+9fmB8/Mselui5+iN6be7ArNtbY3JV0W2d0b5w+X2flcjR0u5stPnIMFtl/uIJP4pXPXQOwxc6+/de6sh/k1fyztm/ysPhD178faBMZle2c6sfYnyJ31QqJDvHuHcFBRjNw0dc0cc0+1dl0lPDhMMpWIPQ0IqXjWpqaln917q1n37r3Xvfuvde9+691737r3Xvfuvde9+691pnUn/Yqb/hU/V0nqwPxr/nJ9dfcxciDb9F8iK7ISSksbxms3Vk+5tvzKoswjTslfre6e691uY+/de697917r3v3Xuve/de697917r3v3Xuve/de697917r3v3Xuve/de697917r3v3Xuve/de697917r3v3Xuve/de697917r3v3Xuve/de697917r3v3Xute3/hUd0n/pm/kufKCqpqT7zOdOZTqruzBJ49Zh/ul2Nt7Ebqqw36ovtevNz5l9QB4Gk2BJHuvdWOfys+7P9mL/AJb3wc7mlq/vspvb4v8ATdRuap1mTXvXD7JxO3d8p5Guz+DeOIro7n1HTzzf37r3R9vfuvde9+691737r3Xvfuvde9+691737r3Xvfuvde9+691737r3Xvfuvde9+691737r3Xvfuvdf/9Df49+691737r3Xvfuvde9+691737r3RD/5n3yprPhL/L6+W3ykxElDFufqTpnc+V2K2TjabHN2RnEg2l1pFXwJJE89HNv7cGNSSNWVpEYqCCb+/de6+IjuTcef3juLP7u3XmcnuPdO6s1lNx7l3Dmq2fI5jPZ/OV0+TzOZy2Qqnlqq/J5TI1Uk880jNJLK7MxJJPv3XumX37r3XvfuvdfYj/4ThfMzdfza/lOdAb57Fzsu5u0OqKvc3x67Dz9VU1NZksxk+rKqmp9q5XN1lbPU1dduHK9ZZbA1WQqJHL1NbNLMba7D3Xur1ffuvde9+691737r3Xvfuvde9+691737r3Xvfuvde9+691737r3Xvfuvde9+691qXf8AClj+fVuf+XFgcH8SPihkaOm+XPa20TurcW/6iipcpT9Ddb5SorcViczjqCviqMbkOx92VdBUnGRVEc8GOpqZqueJjLSJL7r3XzEOx+zexu4t55zsbtnfm8OzN/7mqvvdxb137uTL7t3Vm6oIsazZTPZ2srsnWvHEionklYIihVsoAHuvdOvTPcvaPx57T2N3b0rvXM9ddq9a5+k3Rsfeu35IY8rgM3Rh1iqoFqoamiqoZYZXhnp6iKamqaeR4po3id0PuvdfWi/4T7/zo6H+bX8d9xY/smhxO1/ll0GMDi+6MDhoGo9v7ww+djq4tsdrbRo3kl+zxm4Z8XU0+QoA7NjcjAy/8B56Vn917rYJ9+691737r3Xvfuvde9+691737r3SC7T7O2L0r1tvrt3s/ceN2h151ttXOb03nubLVEdLj8Lt3b2PnyWTrZ5ZWRSY6anYIgJeWQqiAswB917r5tHyV7S/mB/8Ks/mRtzbnxD60wPU/wAX/iPuvL1HXXcG60q9tHrsbvyGA+73tvPsbHUFbuabem4aTZ9DX0O3cMjS0wo43KLJ+8Pde6OLL/wjI+WG3qMdi7H/AJpmNTvcg1TzS9W9kbUpP4ig8sZHbmI7eze8WH3BP7xwIdf1aCTYe691k+FP84f+ZN/Jq+XO0v5fv86qfP756a3TPicbsvvjdOSl3dlto4WumgwWL3rt/tNoEq+zerqariSPIJkS+TxNndzGLx+/de6+gFRVtHkqOkyOOq6avx9fTQVtDXUU8VVR1tHVRJPS1dJVQPJBU01TBIrxyIzI6MCCQffuvdSffuvde9+691737r3Xvfuvde9+691737r3Xvfuvde9+691737r3Xvfuvde9+691737r3Xvfuvde9+691737r3Xvfuvde9+691737r3RZfmn0snyP8Ah98p+gDSrWS90fHnuTrCihKhnGU3t19uDb2JqIOCUq6TJ18MsLj1JKisOQPfuvdUV/8ACR/ul+0/5OWwNk1NQZsh8dO7e7OmaqOZiauCGv3FS904+GdX/dEdPQdvpDFq4WOEIOEsPde62bvfuvde9+691737r3Xvfuvde9+691737r3Xvfuvde9+691737r3Xvfuvde9+691737r3Xvfuvdf/9Hf49+691737r3Xvfuvde9+691737r3VaH84/4wZz5k/wAsD5p/HfamKlz2896dMZXN7DwMDxRz53sHrLK4jtXYOEp5J3jhjny+8tkUNOjOyqGkBJA59+6918TqWKWCWSCeOSGaGR4poZUaOWKWNikkckbgOkiOCCCAQRY+/de6x+/de697917r653/AAll+Le4fjF/J/6aqN34ap2/un5G703x8msni6vQKlMRv5cJtnr3IyKjN4xn+rNi4LIIjWdI6tVcK4Kj3Xutir37r3Xvfuvde9+691737r3Xvfuvde9+691737r3Xvfuvde9+691737r3XvfuvdfF1/nxdk7t7U/nC/zCdxbzpqujyeF+SG9etsbS1hJZdpdRPS9W7JqYFLMI6TKbR2hRVkQFgUqA1rk+/de6qR9+691737r3Wzb/wAJHOyd27I/nM9Y7U29TVdTg+4umO+Ngb7aAn7ag25htjVPa2OyVcmoL4xvHrbF0qNYkSVYA4Y+/de6+sX7917r3v3Xuve/de697917r3v3XutXH/hXz3Punqf+ULX7c2xkMhjY++vkh1J0xuebHzTQNPtZ8F2F2rkMfVyQlT/D8lV9V08EyMdEqSaGuGsfde6Pl/wn3+NmwfjV/KM+FGO2VicfSZLuDpTZPyG37maVjNW7k3l3dgqHsKpq8pVPJK8k+HxecpcZFECqU8NEsYVSGv7r3Vznv3XutWT/AIV5fGzYPav8pzdffGXxOPHYfxd7N6q3Ts3cbMYcrHh+yewNudQ7p2zFIsifeY7KDe9LWyQOJAsuOSVQpVifde6sM/4T79z7p79/k3/A/sbemQyGV3GOq8719W5PKzTVGQr6fpnsvfPTeKq6qoqC01RJUYjYUDeRiS4Ia5vf37r3Vx/v3Xuve/de697917r3v3Xuve/de697917r3v3Xuve/de697917r3v3Xuve/de697917r3v3Xuve/de697917r3v3Xuve/de697917r3v3XutPj/hNf/wA47/PX+el8BakigxnV/wAsR2l1liATGsmzsxvLs7a0+TSlNlgWXaNLs5vTcWnCk2VSfde63B/fuvdI3sNOwZNjbsTqio2bSdltgciuxqnsOjzeQ2NBuc07/wAIl3ZQ7brsZn6rApV6TUx0dRDUNHcI6tY+/de61ZOmv5sf82ran89roD+VB82dkfBzG7N7I2v2Tvqr3l8aNpd0CXdmy6XoDtrs/Y+Vwmf7Q7Ry9VjKyg3d1mcdXxTYSDUYqtEEiNTVK+691tm+/de697917r3v3Xuve/de697917r3v3Xuve/de697917r3v3Xuve/de6//9Lf49+691737r3Xvfuvde9+691737r3XvfuvdaOP88v/hKpmvkf2ZvT5efy4ZNn4DsjfNfld1dtfGrclfS7R23vTdlb5q/Jbu6o3LOqYDbe59z5Is9fiso1Hi6qrneqStpWMkc3uvdaNHSv8ub50/JDe++uvugPiv3J3Pn+sN6V/XnYlZ1ntKs3ls3ZW8sbW1lBUYXcvY2CNb15iJJKjHzmnmmyi09XFE0sEkkQ1+/de622/wCUB/wkY7erextpd8fzSKDb2y+u9rV1HnsT8VcNuHE7w3Zv3K0NYZqSj7b3Btmrye0MDsn9iOWfGY+vyNZk45PBUPRKskc3uvdfRAoaGixlFR43G0lNQY7H0tPQ0FDRwR01HRUVJElPS0lLTQqkNPTU0EaoiIAqKoAAA9+691K9+691737r3Xvfuvde9+691737r3Xvfuvde9+691737r3Xvfuvde9+691737r3XzGv+FdX8sbsHpH5h5D+YRsXbeRy/QXyeh2zT9i5vHwmoo+tu89v4HH7UqMfnI6emT+FYXsTA4OjyFBVStItRl/4hE7RsaZJfde607Pfuvde9+6919BL/hG9/LG7B2fkeyf5mXbu28jtnBbw2LW9OfGjH5eE0tVunBZrM4vL9jdpQ0FRTCoiwjPtyixGGqxIorUkyTBDD4JZPde635vfuvde9+691737r3Xvfuvde9+691Sd/wAKEPgxuv8AmAfyu+8epeuKCXMdr7Bq8B3t1bg4I4ZKncO6+sjX1Fdtui889Oq5Lcey8rlqGksxLVVRGoB1W9+691Vp/wAJbf5vXU3cHxY6+/l2d3bqxPXfyk+NNLUdc7F21uyZ9vVfaXW+OydYm2KTb65eoAq95bIglXDV2LUx1XjpoJEgIZ7e691t+e/de60MP+FS/wDNB2j8pqLrn+UF8KMhS98dpdh9t7Mru5ZuvHO5KGDNYXIudh9RYnKY2pbGV+4KrdU1PlMoU88WPioIRK8bNJp917rbx/ls/FD/AGRz4IfFv4pTVUFdlum+p8Fgt1V1Ksa0tZvnKvVbo39VUnhlnjakqN652veJg7a4yGvz7917o73v3Xuve/de697917r3v3Xuve/de697917r3v3Xuve/de697917r3v3Xuve/de697917r3v3Xuve/de697917r3v3Xuve/de697917r3v3XutPjaX/OK3/CxPf+IIGNwn8w34Pw5bG0RBioq3MbW2Tha+qr6dDaN66XJ/EvLuzj1GSrnH1kIPuvdbgc00VPFLPPLHBBBG8000zrHFDFGpeSWWRyqRxxopLMSAALn37r3VI/X/8AOUqvlx2r2v17/LP+I2+vm1sfojcTbP7U+SdZ2psHoL44HeCwPUNtPq3fW7oNy53trNRIoeR8fh4satPJDVCrajq6Koqfde6138P8i898kf8AhYd8I83vPoTtj41dhdc9Edp9UdhdUdvLtSqzGL3VgPi38vs++V2vuXZG4dy7V3z1/nsLuqiqsRm6KoEGQgkLrGgHPuvdb7nv3Xuve/de697917r3v3Xuve/de697917r3v3Xuve/de697917r3v3Xuv/09/j37r3Xvfuvde9+691737r3Xvfuvde9+690Tf+Yb8lqf4dfBr5W/JySpipch030Z2Bu3axnVHiqt+pgqrH9d4t1k/bIzO+6/HUnquLz8g/T37r3VPX/CUr40VPQv8AKM643/n6aoj3v8sOyOxfkbuSoyIMuUmxuWyVP19sZ56yQtPUUeV2V1/RZiAFiA2Wkfh5Hv7r3Wyb7917r3v3Xuve/de697917r3v3Xuve/de697917r3v3Xuve/de697917r3v3Xuve/de697917pCdndX9dd07B3V1Z23sjbHY/XG+MPV4Dd2yd5Yeiz+29w4eujMdTQZTFZCGelqYXU3F11IwDKQwBHuvdaCX8+j/hNH8EfhX8OfkR89fjd2B3B1g/Ws/Xk+P6FzOTxnYHXVbV7/7S2N1mmI25ms5T03YeEpqd93tXFq3KZplEDKoWOwT3Xujifybv+EtXwFy/x5+JvzR+T83YvyG3t3F0j1L3qOm931uL2/0ltyt7G2rgOwMVjMptjA0MO5d6JiKTKR080GUyz4ytUyLU0DK2hfde63UsPh8Rt7E43A4DF47CYPDUNLi8RhsRRU+OxeLxtDClNRY/HUFHHDS0VFSU8axxRRoqIigKAB7917py9+691737r3Xvfuvde9+691737r3XvfuvdatP81f/AIS4/GT547/y/wAi/jtv2r+IXyXy1b/HM7lcBghmert87kjqqeqh3Dm9r46uwmV2tujyxu75PE1KmSQq8lNI66vfuvda9nzT/kP/AM+34z/Ervfs/fP8zav7l+PnQnXGe7Dy3Uu2flX8u8pksxsvbEC1m65KHrjde1cfsCjjwe1oKjITxtk3U09I6rqbSD7r3V4//CX3+VN8E+vPiL0J/MZ2VDle3/kP3PsyvnrN6b9jxctL05uLC5fK7K3/ALJ66wFEj0+JfF7swFfTnK1Dy5GsphGw8CMI/fuvdbcXv3Xuve/de697917r3v3Xuve/de697917r3v3Xuve/de697917r3v3Xuve/de697917r3v3Xuve/de697917r3v3Xuve/de697917r3v3Xuve/de609/+FAv/ADjd/N1/kK/OenP2OLj74rvj12VnB+1/Ddm5PfexIQkkw0+VJ9odsbukEbMq2gYfRyR7r3Vsn/CiLtPfvTf8l/557261qslRbpn612jsJqzENPHkKTa/bnbvXfU+/qmCamjknp1g2FvbJNJKukxRhn1x6da+690Ev/CX3Ym09k/ySPh3V7Xgo/ut+f6Z997vydKUaTM7syHevY+FqZ65opJI2rMNh8BRYjjSyxY1FcBw3v3XuqwPkt/3Gj/y9v8AxUDev/wOXzh9+691ue+/de697917r3v3Xuve/de697917r3v3Xuve/de697917r3v3Xuve/de6//1N/j37r3Xvfuvde9+691Xl/NX+c9H/Lg+A/yF+XbYah3NuPrjbOOx3Xm18m8643cPZu+c/itkbBosqtJLT1k2BpNyZ+CtyaQSRTtjKWo8ciPpYe691Qx8EOqv5bnym+HvXHyI/mi/OzrDv35p/JvYdN2vvjdHYPznx3X+a+PFP2RSpuTaHWPSHXu1O29r4HoCTrbC1tGZaegx1LkYc+tS05REio6b3Xunn/hMz8+u6+1ux/5gX8u/u7vHLfJ+i+Eva2ToPj/APIPP7lp9+bh3x0/Q7/3r1rUUeS7Bo5amHemBp6namMyuCyUlRWzVFLm54knNFTUUcXuvdPv/CuLuDch+E3x4+DvXEoqe0Pnz8qOu+t8Tt9Zpklzu1ti5bFZ6ogSGmWSaoC9sZrZUZXSwAmvYtp9+691sy9CdP7Z+PfRvTfQ2y4kh2j0t1bsHqrbSJCKcHB9f7WxW1cZI0IaTRLNSYpHe7MS7Ekk3J917oWffuvde9+691737r3Xvfuvde9+691737r3Xvfuvde9+691737r3Xvfuvde9+691737r3Xvfuvde9+691q4/wDCv7fQ2j/J2z23zN4v9KPyQ6N2KE1EfcnHz7n7M8JA/XpHXRksf+Od/wAe/de62F/i1sQdW/GT459ZLB9svXXRHUWxBTEW+3G0ev8Ab23xBb8eIY/T/sPfuvdDv7917r3v3Xuve/de697917r3v3Xuve/de697917r3v3Xuk3vLaG3ewdn7r2FvDF02c2lvfbed2hunC1i66TMbd3Li6rDZvF1Sf26bIYytlicflXPv3XutST/AISvbu3F8dNy/wAy3+Uh2TlJ6jd/wr+UG49z7CbIqYqrP9e7oylbsXN5TDw2VU2//Ftj4zNxnSoc7tV1uHsnuvdbLHy7+bPxb+BvW2E7e+W/buH6Y643HvjG9b4TdGbw+6s3S1+98xgdy7nxuAjpNoYHcOSjqKrA7PyVQJHgWALSsGcOyK3uvdGZxmSoczjcfmMZULV43K0NJksfVIsiJU0NdTx1VJUKkqJKqzQSqwDKGAPIB9+691O9+691737r3Xvfuvde9+691737r3Xvfuvde9+691737r3Xvfuvde9+691737r3Xvfuvde9+691737r3Xvfuvde9+691737r3XvfuvdasX/AAr86jrN6/yn6Lt3CrNTZ74yfJnprtSDNUgZazF43cUmf6glEcy38MMu4uyMVMTx+9TRc8WPuvdXe1W1esf5mf8ALtxeA7CpvvOrvmz8UdrZPMNjDD91j8T3T1pitw0ObwMs0csNPmtt1WbhrsfKysIKymiex029+691refy39tfzlP5H1Bun4H7i+BW6v5iPxNp9+7p3H8bO8vj/wBodc7Sye3KLdOW/ieUwu4tsb5ysT7Ywuby9dJk6mny8uOTFZWqrTT1mTpXWSL3XukP3N8Ov5425v53/wAbf5tVD8EOjdy4zq7qKm21H03hPlh19isdtjbm6dr919Y5jrjdfZe45aDNbg7W29t3s+fNVeYxG022wlTU09FSNkVpZ6io917rcz2Rk90ZrZe0Mzvfa1PsbemW2vgMnu/ZVJuCn3bS7P3RX4mkqs/tam3VSUOLpdzU+38tLLSJkIqanjrVhEyxRhwg917pUe/de697917r3v3Xuve/de697917r3v3Xuve/de697917r3v3Xuv/9Xf49+691737r3XvfuvdUJ/8KX/AI076+T/APJ5+TO3OtMVktw706xm2L3rQbbxUX3FZnMJ1duvH5bfcENOsU1RVTYvryfLZGGCAeeonokiQEvpPuvdB1/wn13b8G/mp/K6+Llbh+o/jxuXtXo7qvZvQveGByXXHW2V31gd6dV4an2VRZvd0UuDmykn+kLb+Dpc5S10+v71K1tUjVEdQqe691ap032l8Ncf8p+3vir0FszY2I7t6o612fvnu2o6o6vwuJ21snGb0zFbTbL2L2BvvamJpsRiews5BQS5ai25XTJkJsUjV0cRhVnHuvda4/yaJ+fP/CsL4ldDxF8v1h/LB6BfvnfWOWVZoMX2dkKKm7BxGbhZdUVPL/erffV8UqEa749xcEjR7r3W4r7917r3v3Xuve/de697917r3v3Xuve/de697917r3v3Xuve/de697917r3v3Xuve/de697917qpXf381Gm3H8nuyPhp8G/jnvT5vd79E0+NqfkXldu782X1J0B0DU5WoqKah2f2F3bvFspDVdn1k1LMsW3cJh8vVq9JVpO0ElDWpT+691h+IX83Hrn5C/K3s74A92dN9hfEP5ydU4U7qyPSHZOW2zu3bnYOzRRY3Jtu3pftbaFVJt7sLEpi8tBWmJ6fHZBqJpJkpnWkyAo/de6pr/4V8g9g9N/y1vjSG8jd4/PjawFFYt9ycVtXJbBDeMfr8Z7f0f8AT2359+691uBgAAAAAAAAAWAA4AAHAAHv3Xuu/fuvde9+691737r3Xvfuvde9+691737r3Xvfuvde9+691737r3Wm58wj/wANxf8ACpn4a/KOEjBdPfzQ+qf9lz7OrjN9jQ5HtCiXb/WVJTyHijSCj3DjerK6eR7a3mqHazHyH3Xui4f8LGt/fMXK/Framxewvj11jtP4kYP5q9YV3U/feF7qfcfZG+92j4995rHgNx9OnaGPTaGNeHJ55jWDLVdji6ceP/K/2vde62Tfgr3J/M/3ll+udt/J74U9A9K9Fr1jRSxdnbA+VUnau7pK+i29jf7r0rbBbrPbKpDm1/4ESffH7T+j+/de6tl9+691737r3Xvfuvde9+691737r3Xvfuvde9+691737r3Xvfuvde9+691737r3Xvfuvde9+691737r3Xvfuvde9+691737r3XvfuvdVofzlelP9mF/lWfPnqyKk+/yOS+MnZu6tv0Ij8rVu7OscJL2hs+kjWzWmqN07No0RrXVyD+PfuvdFW/4TU92f6cP5LvwxyVTWfdZrrjbO8+k83EX8jUH+ijsPdO1Nr0bNckX6/pMPMq8aVmC/QAn3Xur2Pfuvde9+691737r3Xvfuvde9+691737r3Xvfuvde9+691737r3Xvfuvde9+691737r3X//W3+Pfuvde9+691737r3XF0SRGjkVXR1ZHR1DI6MCrKysCGVgbEHgj37r3VF/Zf/Ccn+Vdv7uDK947X6j7A+Pu+tx1FTU7qPxk7o7H6O27uN66sFbkIptr7NzlLhNv0dfKo81PhIcXA5GvR5PX7917qzT41fFP4v8AwS6fn6z+OnWW1emOsMTNld27iekqMjXZLNZR4TU5venYO+dz5DMbu3ruKWlpx9xlc1kK2sMESIZfHGir7r3Wsn/wl8x1d8p++/5tn82TctHO8nyi+UmT6z6qqq+meCqw/X+3K+u7FyeEo3nH3EuMiwe8tn44X4V8FoJZ1cL7r3W4V7917r3v3Xuve/de697917r3v3Xuve/de697917r3v3Xuve/de697917r3v3Xuve/de6DnuHdOa2P1J2lvXbmPbLbh2f1zvfdOBxSQyVDZPNbf2zk8ti8esEMc007VtdSRxhER2YtYAk29+691o7/wDCUio+fe8/ht8o+xfjfu34dT5TenzN3hke2c/8ldr947p7W3Huuo6s6pzkeUmy/Xm+dt4OTbNVUbhrZqcTQPXHJT5B5JGjeFU917q2fO/ye/nX3J/N8+KP81buzvn4pbUznx42ziNhbh2J0Fsbt7DHfez6GPtWjyMk1fvzcm5Xjz2bwXalTiqhjKtOcfTRIED6mb3Xuiwf8KBQ3aP847/hOv0VGDPT4j5OZPtfO49bMtXiafuD485OQ1CG58SYrrDJJfiySyfn6e691uDe/de697917r3v3Xuve/de697917r3v3Xuve/de697917r3v3Xuve/de61hf8AhWL8ac12v/LMpvkdsBauj7X+DXc2we/NsZ3ExB89j9rV+Up9jbzGOkKOaenxVVnsTuKpcfoTboc8KQfde6rT/wCFOfyWw3zG/wCE9/8ALu+UWDMCU/ePya+OW/sjRUxUx4bc+X+LPyf/AL47cbQ8iCfbO7Yq3HygMwEtMwBI59+691uzdTf8yr60/wDEf7N/95zG+/de6ED37r3Xvfuvde9+691737r3Xvfuvde9+691737r3Xvfuvde9+691737r3Xvfuvde9+691737r3Xvfuvde9+691737r3Xvfuvde9+6903ZjEY3P4jKYLMUkVfiM1jq7EZWgnBaCtxuSppaOupJgCCYqmmmZGFxw3v3XutRr/AISM5fJdYdSfzIvgluCqmn3F8PPnTuugqoKtrVdBRbqx9T10aRobKIYW3N0JlZ7W/wA/PL7917rb29+691737r3Xvfuvde9+691737r3Xvfuvde9+691737r3Xvfuvde9+691737r3Xvfuvdf//X3+Pfuvde9+691737r3Xvfuvde9+691Tj/P8APlB/spf8oz5odi0OR/h+6939Yz9GbGaGf7fIvubvavpOrWrMPLdSuS23t7c1fmVZSGRMa7r6lAPuvdZf5BPxfHxK/lH/AAu64rccMfurdnV1L3hvlZIzHXtujvWsqu0npMqpC6cltzCbmocQ629C45UuSuo+691cT7917r3v3Xuve/de697917r3v3Xuve/de697917r3v3Xuve/de697917r3v3Xuve/de64uiSI0ciq6OrI6OoZHRgVZWVgQysDYg8Ee/de60vemPgx/Mz/kD/ADM+RO9/gd8Xo/nx/Lf+UO5KLcdb0hsvsfB7N7g6WraSvy9VtymxeN3SxlqchsukzlbjI6mhpMrSZ3Dx0Yr5aCrijaL3XurpOn+w/wCZ583O5emN4736D3N/LF+JvUW6ouw98bZ3j2P1/wBj/Jn5XZelxNZSbd6vqdvbSpM3tfprpGiylY9TuRsnNNuPN+CmgoY6BS9YnuvdVM/Nsntj/hXb/Ky6+X/KcL038Rd39hZdP1igzjbd+XW4qeQoAQvkqMXgACSOZAfwL+691uDe/de697917r3v3Xuve/de697917r3v3Xuve/de697917r3v3Xuve/de6CXvzpvaXyJ6O7i6C35AKnZXdXWG+uq91ReNZXGB39tnJ7Xyc0Csy6aumpMm0kLBlZJVVlZWAI917r56/wp+E3eH80b+TV8p/5NNLvfaWy/lr/ACrf5hFVvrZmB31XZbG7QymIr4u4tm5bY+VytHi8xlcPDLvjN9hT01XHQzQrXCghqFgimkqU917rb8/lw1P85miw/Wmxfnx1h8KNlbE672XR7Q3DvDq/sbsjdvcPY1Zt/bMmI29naXbEeKk6523JkK6npJ8vUSZeTySLUClx8CTRCm917q4b37r3Xvfuvde9+691737r3Xvfuvde9+691737r3Xvfuvde9+691737r3Xvfuvde9+691737r3Xvfuvde9+691737r3XvfuvdJbfG99pdabL3Z2Jv7cOK2lsfYm281u/eG6c5VxUGG27tnbmOqMvnM1la2dlhpaDGY2kkmlkYgKiE+/de6+W//ADf/APhUN8uvmL2Nu3rL4Xdjb1+LvxNw9dWYbA5TYVdWbO7o7dpKWsATd+7N8Y9qXdey8VlFpw1JhMTUULJSysmQkqXfxQe691rQbX7v7o2Rvqv7Q2X292htDszK5GrzGU7E2vv/AHXgN9ZLLV9VJXV2Ur93YnLUmfrMjW1srzSzyVDSySsXZixJ9+691uPfyL/+FSvd3X3aOx/i3/Mp7Fqe1ulN65PD7R2b8kt4vE/YnUOYrTBi8R/pO3Ksccu+evayqMa1mWyXly+LeR6qoq6imDLB7r3X0h45I5Y0lidJIpEWSOSNg8ckbgMjo6kq6OpuCOCPfuvdc/fuvde9+691737r3Xvfuvde9+691737r3Xvfuvde9+691737r3Xvfuvdf/Q3+Pfuvde9+691737r3Xvfuvde9+691p6f8Kfq6u+VvyG/lH/AMpnblVVS/7M38ocb2l2xS49ilXh+vtu11J11j8/MY2E0lBR7b3dvTIuo4U4QPYuqafde63AaChosXQ0eMxtJT0GOx1JT0NBQ0kMdPSUVFSQpT0tJS08SrFBT08EaoiKAqqAALD37r3Ur37r3Xvfuvde9+691737r3Xvfuvde9+691737r3Xvfuvde9+691737r3Xvfuvde9+691737r3Xvfuvde9+691p9dNN/pc/4WQ/Kqot9zT/Gf4G4Glp57a4qWfM7D+PMM0UUltKSio70qkKgk3Eg/DW917rcF9+691737r3Xvfuvde9+691737r3Xvfuvde9+691737r3Xvfuvde9+691737r3Wm62r+W/wD8KyUb14XpH+bj0IUJLpDt6l7lpaIWsvoafcuT7M6iUC+tlffhsdMlk917rci9+691737r3Xvfuvde9+691737r3Xvfuvde9+691737r3Xvfuvde9+691737r3Xvfuvde9+691737r3Xvfuvde9+691737r3XvfuvdazP/AArW773J0l/J533t7bFVlcdVfIjujqnoTKZLEy1NPNS7byQ3L2fuOlq6imIaLFbhw/VkuJqlciOogr2ga4l0n3Xuvk2+/de697917r3v3XuvtI/yKO+9yfJf+UX8Ee2t4VWVyO6avpaHYWey2clqajL53JdMbp3J0xU7hyNVVk1NbV7hfr/716hyxqDUeS51XPuvdWz+/de697917r3v3Xuve/de697917r3v3Xuve/de697917r3v3Xuve/de6//9Hf49+691737r3Xvfuvde9+691737r3WnR8XdPz5/4Ve/L7vyXx5rrL+WN0OnQew8gfLWQ4rs6uo6nrvMYptX+SUdQm6d5dnstjqDUYIUvrdPde63F/fuvde9+691737r3Xvfuvde9+691737r3Xvfuvde9+691737r3Xvfuvde9+691737r3Xvfuvde9+691737r3Xvfuvdaff8mjT2r/wok/n692D/KTsHM7f6KFZ+vwfZ75baTUWsi62boDTp+n7Fvx7917rcE9+691737r3Xvfuvde9+691737r3Xvfuvde9+691737r3Xvfuvde9+691737r3Wpv8A8K0umd2Yn4tfFn+Yp1PAKft7+Xh8oNh7/oM6lM7tidob33HtqCOuqZqcpO0ND2/tTZ+lWIRUnmIKljq917rZt6C7l2n8iujOnO/thzefZfdfV+xO1dqu0iySrgd/bYxm6MZBUlAoWspqXKLHMhCskqMrAEED3Xuhb9+691737r3Xvfuvde9+691737r3Xvfuvde9+691737r3Xvfuvde9+691737r3Xvfuvde9+691737r3Xvfuvde9+691737r3VQv89b4Mbj/mF/yyPkT0BsCijyHbNFjsL2t09QslO0uV7D6vysO56HbNHJVVFJTUtdvnB09fgYZ5JEjgkygkclVYH3XuvjI5fEZbb+WyeBz2MyOEzmEyNbiMzhsvRVONy2Iy2NqZaPI4zJ46sihrKDI0FZC8U0MqJJFIjKyhgR7917pv9+690JXTnUHZPf8A2psDpTp/aWW312d2funE7N2TtPCQGoyGZzuZqUpqWFfpFS0kAYzVNTMyU9JTRyTzOkUbuvuvdfb5+Bvxhx/wu+Gfxn+K2PrabKHo3p3Zew8vmaOm+zpc/urHYqGbee44aXXKadNxbtqa2u0FmK/cWLE8n3Xuja+/de697917r3v3Xuve/de697917r3v3Xuve/de697917r3v3Xuve/de6//0t/j37r3Xvfuvde9+691gqqqloaaesramno6SmieepqqqaOnpqeGNS0k088rJFFEii5ZiAB9ffuvdES7b/ma/BPqnZ3cuek+Wvxm3PuzpXrTffZe5Ortud+9U5TsaXH7D2zl9y1uOi2fQbpq9xLX1sOHkhhT7Uu8pChSePfuvdUdf8JHendzp8HO/fm72Sr1naHz5+U3Y3ZuW3HIpV9w7X2Ll8ptqCrk16pGk/0s5Le0hJYi04tyGJ917ra59+691737r3Xvfuvde9+691737r3Xvfuvde9+691737r3Xvfuvde9+691737r3Xvfuvde9+691737r3Xvfuvde9+691p9f8JW1HYHcn87/wCTAIqP9OHz3rFWvHq+6GJ3V3bv8lZTcuD/AKXw/wBf7YP59+691uC+/de697917r3v3Xuve/de697917r3v3Xuve/de697917r3v3Xuve/de697917orHzg+NWF+Y3w/8Akn8Xc6KZaXvHpzfWwMfWVYJgw25svg6obO3JwslptsbtiosjGdLASUqkgjg+691RV/wk4+S2a7W/lnVnxu3+1TR9r/Bjuff3Qu5cFlZvJnsftTJZSp31st8lEWY09Pi63OZfbtNH/Yj26UHCgn3Xutnz37r3Xvfuvde9+691737r3Xvfuvde9+691737r3Xvfuvde9+691737r3Xvfuvde9+691737r3Xvfuvde9+691737r3Xvfuvde9+691rR/zaf+Ex/xB/mV7xzPe+wd0ZH4pfJzOoJNzb82htmh3R192TXK8OnLdkdbPkdutWbl+2jaL+LYzJY2qm1hqxa3xRKvuvda3+G/4RH/ADRn33Nj9w/Mf4v4vrJZFFPu7DYLtbO77li1sGebrqt21tzb8EgjAIVd0yAkkagBc+691ti/ykv5APw5/lOpNvvaUmX7y+S+YxIxOc7/AOxMbjqPIYegnp448phOrto0T1eP68wGUnVnntU5DK1CMIqivmhSONPde6vX9+691737r3Xvfuvde9+691737r3Xvfuvde9+691737r3Xvfuvde9+691737r3X//09/j37r3XvfuvdBT3n3V118cem+zu+u3M9FtjrPqHZG4uwN75ySKSoag29tnGz5OvampIFeorq+eODxU1PErS1FQ6RIC7qD7r3XyFf5uv8835ZfzUOz9zUuT3funqv4pUeTqabrb43bczlTjduNgqatWbGZ7tSPFVEdN2DvusFNDPLJWNUUWNlHjoI41Eks3uvdUj+/de62X/wCQ5/woK7p/lr9jbI6E703XnexfgZuTPQ4jN7Uyzz5nK/H/APj2Sd6zsDq6R/JkKXAUWQrnrczt+IvS1cZmnpIUrmY1HuvdfWKxWVxudxeNzeGrqXJ4jMUFHlcVkqGZKiiyGNyFPHV0NdSVEZaOelq6WZZI3UlWRgRwffuvdT/fuvde9+691737r3Xvfuvde9+691737r3Xvfuvde9+691737r3Xvfuvde9+691737r3Xvfuvde9+691QB/My/4Uffy9f5be4891Fm9x7l77+RWGhaDKdRdJUeJzp2Rk6iknmoYOyt5ZjL4bae15lkSM1GPiqa3NwRTRyNQiN1Y+691pxfyAP8AhRH0D/Kk6M7L+P8A398f+2+wIe0u/wDcHdmX7e6xz+0cnmKVdwbJ692cm36jr/dD7ThqY8VNsueuNWmdLzNkGQQL4wX917r6K3wn+ffxO/mG9Tx9y/EztzCdnbUgqhjNw4+KKrw28tkZvx+VsFvjZmYho9w7YyZiPkiFRAsNXCRNTyTQssje690cb37r3Xvfuvde9+691737r3Xvfuvde9+691737r3Xvfuvde9+691737r3Wu1/PW/n79Yfyk9qYzrLYOBwncPzI7D2++c2Z1vk6+eLafXm2qmaooaLsTtZ8ZPDlv4TU1tNMuNxNNJTVeXkp5AJ6aFHqF917r5iVJ/Mn+bm1+5PkR3l0/8AIns/4470+U3Z1d233RF8b957o6WwW6N2VW5d0brpllxuysxjpGw+Iy29MmaWlllmRY6yVXMmty3uvdXWfAH/AIVh/wAyL4xb52/j/k7vAfMzomStx9Jujb2/8fgcX2zhsIpeKtyWxez8LjcXkK/PxpKJjFuMZenqzCIRJSGRqhPde6+mx8Svld0l82/j71z8mfj1u2n3j1d2Zh/4nh65QsGSxVfTTSUWc2xuPHa3lw26Ns5aCWjr6OQ64KiJhyulj7r3Rjvfuvde9+691737r3Xvfuvde9+691737r3Xvfuvde9+691737r3Xvfuvde9+691737r3Xvfuvde9+691737r3Xvfuvde9+691737r3Xvfuvde9+691737r3Xvfuvde9+691737r3Xvfuvde9+691737r3Xvfuvde9+691737r3X/9Tf49+691737r3Wrj/wr+7J3bsT+T1mdu7apqubGdv/ACQ6U623zVUpKrjtpUabv7SjqaxlZSKSq3d1niaMjkM9UqkWJ9+6918pX37r3Xvfuvde9+6919mn/hPp2Tu3tf8AkzfADde9aarpc5RdMVGwIlriWqanbnUu+d39U7LyTOzO0keW2dsugqo2Ju0cyk8n37r3Vx/v3Xuve/de697917r3v3Xuve/de697917r3v3Xuve/de697917r3v3Xuve/de697917r3v3XuqCf8AhR9/Mm3f/La/l1bi3V1HlHwvfnfm7KPonqHcEMUE9RsmrzuGzGc3l2FBDPKgFbtfZ2Eqkx8uiZIM1W0LyRvGHU+6918gvKZTJZvJZHNZrI12XzGXrqvKZbLZSrqK/JZTJV9RJV12RyNdVyS1VbXVtVK8k00jtJJIxZiSSffuvdQffuvdWVfyof5j/av8sH5jdbfIbYmYy7bEbNYnbnfPX1JI0uM7M6grsjCm6cJVYySopqSo3BiqGSSuwdSzI1HlIYm1GF54pfde6+1zgs1i9y4TD7jwlZDkMLn8Vj81iK+nYPBXYvK0kNdQVkDi4eGppJ0dSPqrD37r3Tr7917r3v3Xuve/de697917r3v3Xuve/de697917r3v3Xuve/de6+G1/MX+Um4fml85flH8mtw5mpza9qdx7yy21p6jQP4f1zjsrNgescBTpGqolJt3r7F42hjsLusGtizszH3XuiWe/de697917rfQ/wCESHyk3Cm/fmR8Lctmamr2xXbL218mti4GXQafCZfA5/EdYdnZGkbT5Qdw0269qpKhJRTj1ZQGdy3uvdfQo9+691737r3Xvfuvde9+691737r3Xvfuvde9+691737r3Xvfuvde9+691737r3Xvfuvde9+691737r3Xvfuvde9+691737r3Xvfuvde9+691737r3Xvfuvde9+691737r3Xvfuvde9+691737r3Xvfuvde9+691737r3Xvfuvdf/1d/j37r3XvfuvdVs/wA3T4LL/Mc/l7/In4pUFXSYzem89s0W4urMvXTCmocd2rsHL0O89hjI1Zpqx6PC5jOYZMbkZUjaRMdWzlBqt7917r4tXaPV3YfSfYu8+pO2doZzYPZPXm4cjtXemztyUbUOZ2/nsVO1PWUNZAxZGswDRyxs8M8LLLE7xurn3XukF7917oy3xB+Jfdnzh+Q3W/xm+P21ardXY/ZOcpsZShY5hh9tYYTRfx3eu7chFFKuG2jtXHs1XX1TAlYk0RrJM8UT+6919uL4pfHranxM+NHQ/wAZdjzT1e1eieqNj9X4nI1axJXZmPaGAosRU57IiCOKH+J5+tppK2pKqqmedyAL+/de6MB7917r3v3Xuve/de697917r3v3Xuve/de697917r3v3Xuve/de697917r3v3Xuve/de697917rRy/4W+dbbty/xx+CnbdBU1f9yNh9z9tbA3NQRAtRy7j7R2VtfPbPyVXZTokoKDqfMwxMSB/ljDksPfuvdfOU9+691737r3WSKKWeWOCCOSaaaRIoYYkaSWWWRgkcccaAu8juQAACSTYe/de6+7B8Muu90dQ/D74o9Tb3rajJ706v+NfRfXe78lVkNVZDdGyur9rbaz9bUsAoaoq8tjJZHNhdmPv3XujKe/de697917r3v3Xuve/de697917r3v3Xuve/de697917r3v3XuviX/zevhnuv4HfzE/lB8ftw4KXC7eo+zNy746lqFpqmHG57pjsDM5Dc3W2VxFRUQQR10FJgK1cbVtDrihyuPq6cMWgb37r3Va/v3Xuve/de6+hL/wih+Ge69vbd+VPzv3ZgpcZt7sGkwPx66bydXTVNPUZ/GbdzT7t7dyuPaeCOGr28u4qLb9BFUQvIj5DG1sLaXpyPfuvdb6fv3Xuve/de697917r3v3Xuve/de697917r3v3Xuve/de697917r3v3Xuve/de697917r3v3Xuve/de697917r3v3Xuve/de697917r3v3Xuve/de697917r3v3Xuve/de697917r3v3Xuve/de697917r3v3Xuve/de697917r//W3+Pfuvde9+691737r3VO38y7+Rf8Av5pbQ7m742Hmdl904/GRYjE9/8AT2SoNo9nx4ynlSWmxW4JK7E5va++cXTaWSCPNY2ulo4pZBSS05kZj7r3WvXhv+EPvQcG+5shuH59dv5TrJpFNPtHDdLbLwW+4otbFkm7Frd6bj2/PIYyAGXa0YBBOkg2HuvdbPP8u3+U58JP5Xuyshtf4r9X/wAK3JuSloaffnbu864br7c3+aCNVhXcO7Z6alSixazBp1xWKpsdh4p5HkjpUd2Y+691ZJ7917r3v3Xuve/de697917r3v3Xuve/de697917r3v3Xuve/de697917r3v3Xuve/de697917r3v3Xuic/Pv4T9T/zDfid258TO5Y6qDanZ2Eiix+4cYI/43sjeWGq4cxszfGCaW8Rye2Nw0cFQIpLw1cKyU8waGaRW917r4+/8x/8AlQ/Mb+WD2rmNifIbrbNNsRsvJSdfd87cxORruoOzMZK1RJjKrCbpSGShxW4KikpmapwddJDlKNkbVE8Jinl917qtmKKWeWOCCOSaaaRIoYYkaSWWWRgkcccaAu8juQAACSTYe/de63Wf+E53/Cc7unsrunrb5z/OfrbcPVPSHVO4cXvzp/p/fmLq9v767i31t+riyO1dybk2rkYqfL7d6y27l6eKuRK6KCfOzwRKsTY9neo917r6Tfv3Xuve/de697917r3v3Xuve/de697917r3v3Xuve/de697917r3v3Xuqgv5uf8mf4z/wA3PqbHbY7Ser677n2JS5A9O9+7Xx1JXbo2TPXFZqjB5vF1EtJDvLYOUqokesxM09O2oeWlqKWe03v3XutBnvv/AISD/wA3Tq7clVQdS7d6W+TG1nystPidxbC7b2tsHJHEGpMdLk9w7c7nrOvkxNWaYiSopaKuywiN0jlnsGb3Xuj+fAH/AIRjd8Z/fO395fzFO2tjdfdX4utx+SyXTfSWerN5dkbyhhLzVW287vuTF4zaWwqGaRI45qnFvnqmaBpUhalk8dQvuvdfQi6j6k636H6z2R051Bs/CbA6y6527jtq7L2dt2kSixGBweLhEFJR0sK3ZmIBeWVy0s0rNJIzOzMfde6EX37r3Xvfuvde9+691737r3Xvfuvde9+691737r3Xvfuvde9+691737r3Xvfuvde9+691737r3Xvfuvde9+691737r3Xvfuvde9+691737r3Xvfuvde9+691737r3Xvfuvde9+691737r3Xvfuvde9+691737r3Xvfuvde9+691//19/j37r3Xvfuvde9+691737r3Xvfuvde9+691737r3Xvfuvde9+691737r3Xvfuvde9+691737r3Xvfuvde9+691737r3Xvfuvde9+691737r3Xvfuvde9+6901ZrBYTcuLrMJuPD4rP4XIQtT1+IzWPpMri66BxZ4KygroZ6SphcGxV0ZT/AE9+690AHXfwy+H3UO6K3e/U3xR+NfV+9MnUGryW7+u+i+r9lboyFUwAaprc/tra2My1XUMFF3klZjb6+/de6Mp7917r3v3Xuve/de697917r3v3Xuve/de697917r3v3Xuve/de697917r3v3Xuve/de697917r3v3Xuve/de697917r3v3Xuve/de697917r3v3Xuve/de697917r3v3Xuve/de697917r3v3Xuve/de697917r3v3Xuve/de697917r3v3Xuve/de697917r3v3Xuve/de697917r3v3Xuve/de697917r3v3Xuve/de697917r3v3Xuve/de6//Q3+Pfuvde9+691737r3Xvfuvde9+691737r3Xvfuvde9+691737r3Xvfuvde9+691737r3Xvfuvde9+691737r3Xvfuvde9+691737r3Xvfuvde9+691737r3Xvfuvde9+691737r3Xvfuvde9+691737r3Xvfuvde9+691737r3Xvfuvde9+691737r3Xvfuvde9+691737r3Xvfuvde9+691737r3Xvfuvde9+691737r3Xvfuvde9+691737r3Xvfuvde9+691737r3Xvfuvde9+691737r3Xvfuvde9+691737r3Xvfuvde9+691737r3Xvfuvde9+691737r3Xvfuvde9+691737r3Xvfuvde9+691737r3Xvfuvde9+691//9Hf49+691737r3Xvfuvde9+691737r3Xvfuvde9+691737r3Xvfuvde9+691737r3Xvfuvde9+691737r3Xvfuvde9+691737r3Xvfuvde9+691737r3Xvfuvde9+691737r3Xvfuvde9+691737r3Xvfuvde9+691737r3Xvfuvde9+691737r3Xvfuvde9+691737r3Xvfuvde9+691737r3Xvfuvde9+691737r3Xvfuvde9+691737r3Xvfuvde9+691737r3Xvfuvde9+691737r3Xvfuvde9+691737r3Xvfuvde9+691737r3Xvfuvde9+691737r3Xvfuvde9+691737r3Xvfuvde9+691737r3Xvfuvde9+691737r3X//2Q==;" vertex="1" parent="1">
          <mxGeometry x="80" y="330" width="248.83" height="156" as="geometry" />
        </mxCell>
        <mxCell id="-wsZTfIgCTcUT_M9VoZF-4" value="" style="curved=1;endArrow=classic;html=1;rounded=0;exitX=1;exitY=0.25;exitDx=0;exitDy=0;entryX=0;entryY=0.5;entryDx=0;entryDy=0;" edge="1" parent="1" source="YCVPape62Ff0-Q7dyDGJ-6" target="-wsZTfIgCTcUT_M9VoZF-3">
          <mxGeometry width="50" height="50" relative="1" as="geometry">
            <mxPoint x="470" y="330" as="sourcePoint" />
            <mxPoint x="520" y="280" as="targetPoint" />
            <Array as="points">
              <mxPoint x="600" y="130" />
              <mxPoint x="480" y="260" />
              <mxPoint x="390" y="220" />
              <mxPoint x="260" y="210" />
              <mxPoint x="120" y="240" />
              <mxPoint x="70" y="260" />
              <mxPoint x="-20" y="320" />
            </Array>
          </mxGeometry>
        </mxCell>
        <mxCell id="-wsZTfIgCTcUT_M9VoZF-7" value="List: Autocomplete Result" style="swimlane;fontStyle=0;childLayout=stackLayout;horizontal=1;startSize=26;horizontalStack=0;resizeParent=1;resizeParentMax=0;resizeLast=0;collapsible=1;marginBottom=0;align=center;fontSize=14;" vertex="1" parent="1">
          <mxGeometry x="470" y="350" width="200" height="116" as="geometry" />
        </mxCell>
        <mxCell id="-wsZTfIgCTcUT_M9VoZF-8" value="Item 1" style="text;strokeColor=none;fillColor=none;spacingLeft=4;spacingRight=4;overflow=hidden;rotatable=0;points=[[0,0.5],[1,0.5]];portConstraint=eastwest;fontSize=12;whiteSpace=wrap;html=1;" vertex="1" parent="-wsZTfIgCTcUT_M9VoZF-7">
          <mxGeometry y="26" width="200" height="30" as="geometry" />
        </mxCell>
        <mxCell id="-wsZTfIgCTcUT_M9VoZF-9" value="Item 2" style="text;strokeColor=none;fillColor=none;spacingLeft=4;spacingRight=4;overflow=hidden;rotatable=0;points=[[0,0.5],[1,0.5]];portConstraint=eastwest;fontSize=12;whiteSpace=wrap;html=1;" vertex="1" parent="-wsZTfIgCTcUT_M9VoZF-7">
          <mxGeometry y="56" width="200" height="30" as="geometry" />
        </mxCell>
        <mxCell id="-wsZTfIgCTcUT_M9VoZF-10" value="Item 3" style="text;strokeColor=none;fillColor=none;spacingLeft=4;spacingRight=4;overflow=hidden;rotatable=0;points=[[0,0.5],[1,0.5]];portConstraint=eastwest;fontSize=12;whiteSpace=wrap;html=1;" vertex="1" parent="-wsZTfIgCTcUT_M9VoZF-7">
          <mxGeometry y="86" width="200" height="30" as="geometry" />
        </mxCell>
        <mxCell id="-wsZTfIgCTcUT_M9VoZF-13" value="User Input" style="rounded=1;whiteSpace=wrap;html=1;" vertex="1" parent="1">
          <mxGeometry x="60" y="110" width="120" height="60" as="geometry" />
        </mxCell>
      </root>
    </mxGraphModel>
  </diagram>
</mxfile>
